<?xml version="1.0" standalone="no"?>
<!DOCTYPE svg PUBLIC "-//W3C//DTD SVG 20010904//EN"
 "http://www.w3.org/TR/2001/REC-SVG-20010904/DTD/svg10.dtd">
<svg version="1.0" xmlns="http://www.w3.org/2000/svg"
 width="1280.000000pt" height="1280.000000pt" viewBox="0 0 1280.000000 1280.000000"
 preserveAspectRatio="xMidYMid meet">

<g transform="translate(0.000000,1280.000000) scale(0.100000,-0.100000)"
fill="#000000" stroke="none">
<path d="M0 6400 l0 -6400 6400 0 6400 0 0 6400 0 6400 -6400 0 -6400 0 0
-6400z m8550 4480 c61 -11 105 -30 67 -30 -35 0 -279 -103 -362 -153 -183
-111 -354 -324 -418 -522 -74 -228 -76 -405 -7 -553 70 -150 153 -244 358
-405 121 -96 241 -219 284 -295 65 -112 118 -330 118 -485 0 -85 -36 -211 -82
-290 -59 -102 -188 -270 -188 -245 0 3 14 38 30 79 66 158 87 319 69 528 -14
159 -40 239 -130 394 -103 178 -167 264 -246 327 -17 14 -63 64 -101 112 -39
47 -95 112 -125 145 -74 78 -113 128 -145 185 -50 88 -55 43 -7 -57 13 -27 56
-99 95 -160 95 -147 219 -403 275 -570 33 -98 51 -175 67 -282 21 -145 21
-149 3 -267 -10 -66 -26 -144 -35 -172 -44 -128 -170 -339 -259 -435 -32 -35
-74 -81 -92 -101 -43 -48 -108 -98 -125 -98 -18 0 -18 35 0 63 8 12 27 67 42
122 25 90 28 117 28 265 0 123 -4 187 -18 250 -33 157 -158 448 -264 619 -187
300 -303 585 -302 745 1 145 40 327 94 436 39 80 96 161 212 300 95 115 140
178 132 186 -13 12 -154 -98 -219 -171 -102 -116 -158 -204 -217 -343 -75
-173 -92 -248 -92 -398 0 -101 5 -141 29 -237 43 -172 138 -395 226 -532 55
-87 161 -295 207 -410 59 -143 69 -190 26 -110 -55 100 -159 262 -228 354
-128 172 -244 381 -295 533 -97 292 -81 593 48 885 70 161 160 285 318 441 52
51 126 115 164 141 152 105 349 184 525 210 41 6 86 13 100 15 44 8 373 -3
440 -14z m-1739 -776 l37 -6 -28 -77 -28 -76 -58 -3 c-124 -6 -521 -43 -559
-52 -68 -16 -96 -11 -189 34 -50 24 -124 54 -163 67 -40 13 -73 26 -73 30 0
14 301 61 495 78 118 10 514 13 566 5z m-1911 -53 c214 -55 307 -106 438 -239
119 -122 153 -181 222 -397 96 -302 115 -432 107 -760 l-6 -223 -78 -113 c-42
-62 -106 -167 -140 -234 l-63 -120 6 165 c3 91 10 185 15 210 13 63 45 275 70
465 19 143 20 174 9 290 -12 140 -41 300 -62 339 -26 50 -207 199 -302 250
-53 28 -67 28 -41 -1 34 -36 154 -211 178 -260 39 -75 61 -201 54 -303 -13
-195 -79 -432 -160 -579 -104 -185 -131 -230 -140 -224 -6 3 -7 1 -3 -6 4 -6
-8 -37 -27 -69 -19 -31 -50 -86 -71 -122 -20 -36 -74 -119 -121 -185 -138
-196 -258 -394 -302 -495 -42 -96 -98 -263 -108 -319 -3 -17 -12 -59 -19 -93
-30 -133 -29 -245 3 -433 6 -33 12 -77 15 -97 7 -59 36 -149 64 -201 15 -28
22 -51 16 -56 -5 -4 -31 -16 -59 -26 -27 -10 -70 -29 -95 -42 l-45 -24 -33 38
c-18 21 -50 61 -71 88 -43 56 -168 316 -212 444 -65 187 -88 488 -50 662 20
90 104 316 151 409 69 135 158 260 385 542 177 221 310 422 354 538 43 112 65
261 58 391 -8 128 -28 195 -98 328 -110 206 -178 282 -351 389 -62 39 -122 77
-132 85 -17 12 17 14 270 12 261 -2 297 -4 374 -24z m610 -117 c31 -21 140
-126 140 -135 0 -4 -10 -9 -22 -13 -18 -4 -35 6 -81 52 -32 31 -67 69 -78 85
-19 26 -19 27 -2 27 10 0 30 -7 43 -16z m302 -70 c40 -20 117 -66 173 -103 55
-37 120 -79 145 -93 190 -112 440 -405 540 -636 98 -227 147 -547 116 -762
-23 -154 -40 -217 -91 -335 -41 -93 -104 -217 -105 -204 0 3 20 67 45 141 74
226 81 278 66 497 -16 227 -39 335 -101 466 -48 102 -93 169 -161 240 -21 22
-54 65 -72 95 -65 108 -141 220 -148 220 -4 0 1 -24 11 -52 9 -29 25 -87 35
-128 10 -41 40 -144 66 -229 27 -85 49 -159 49 -166 0 -6 9 -29 19 -51 11 -22
32 -82 48 -134 25 -86 28 -107 26 -226 -3 -176 -25 -272 -124 -544 -81 -222
-135 -434 -144 -560 -6 -86 4 -201 31 -350 6 -35 5 -35 -58 -69 -257 -137
-503 -242 -529 -225 -5 3 -22 33 -38 67 -15 34 -59 101 -97 148 -78 99 -130
180 -150 238 -7 22 -19 91 -25 154 -12 128 -1 214 47 362 30 95 110 266 152
327 16 24 45 75 65 113 19 39 66 117 105 175 38 58 88 137 112 175 23 39 73
113 110 165 101 142 143 236 190 420 40 153 22 337 -46 475 -34 70 -190 279
-241 324 -135 117 -137 124 -21 65z m945 -38 c2 -1 -1 -51 -5 -110 l-7 -109
-142 -4 -141 -5 -24 27 c-12 16 -67 61 -121 101 -54 40 -94 74 -90 77 4 3 57
10 118 17 60 6 111 13 113 14 3 3 295 -5 299 -8z m1368 -89 c514 -256 866
-539 1216 -977 20 -25 83 -115 141 -200 316 -471 509 -962 593 -1510 8 -52 13
-95 11 -97 -1 -1 -24 63 -50 142 -64 193 -174 378 -255 430 -23 14 -41 31 -41
38 0 12 -35 111 -107 307 -35 93 -112 249 -161 323 -28 42 -64 50 -82 17 -9
-17 -3 -38 33 -118 67 -145 172 -417 196 -505 16 -59 19 -83 11 -98 -18 -32
-38 -170 -56 -379 -9 -107 -17 -196 -19 -198 -1 -2 -8 34 -14 80 -86 598 -334
1139 -726 1580 -57 64 -64 77 -70 127 -8 65 -54 210 -89 279 -54 107 -197 261
-401 432 -118 99 -190 170 -171 170 2 0 64 -29 137 -65 74 -36 143 -65 155
-65 27 0 44 19 44 50 0 34 -80 81 -280 165 -146 61 -169 75 -170 102 0 6 -3
19 -7 28 -9 24 16 15 162 -58z m-2327 -111 c61 -93 61 -91 -3 -106 -30 -7 -58
-10 -62 -7 -8 8 -65 149 -61 152 3 2 69 22 78 24 3 1 25 -28 48 -63z m-1139
-113 c61 -105 62 -100 -40 -166 -178 -116 -409 -323 -600 -538 -259 -290 -298
-344 -432 -583 -154 -276 -181 -345 -141 -360 33 -13 55 -6 67 22 14 30 116
203 215 362 220 353 463 629 752 854 118 92 232 166 255 166 11 0 -2 -179 -15
-215 -8 -20 -47 -57 -117 -110 -138 -104 -398 -356 -531 -515 -323 -386 -550
-856 -652 -1350 -51 -246 -63 -407 -57 -729 3 -157 11 -322 17 -366 13 -94 48
-289 57 -310 3 -8 0 -15 -6 -15 -6 0 -11 9 -11 19 0 11 -3 28 -7 38 -6 15 -9
13 -14 -12 -6 -27 -7 -26 -8 13 -1 26 -5 41 -11 37 -6 -3 -7 1 -4 9 3 9 1 16
-5 16 -6 0 -11 10 -11 23 0 25 -75 180 -104 214 -11 13 -28 23 -38 23 -10 0
-21 7 -25 16 -5 14 -9 13 -24 -7 l-18 -24 6 42 c3 23 2 94 -2 158 -6 100 -10
117 -26 126 -22 12 -52 5 -74 -17 -29 -29 -16 -285 15 -304 11 -7 4 -47 -18
-110 -9 -27 -9 -50 0 -50 5 0 6 -5 3 -11 -16 -25 -52 65 -90 225 -5 23 -13 31
-21 23 -3 -3 -5 -119 -5 -256 1 -146 -2 -251 -8 -251 -5 0 -11 10 -15 23 l-5
22 -22 -21 c-16 -17 -19 -26 -11 -40 5 -11 12 -50 16 -89 4 -38 12 -75 17 -81
6 -7 9 -21 8 -31 -4 -24 11 -83 20 -83 4 0 8 -14 9 -31 0 -16 10 -46 21 -65
12 -19 16 -32 10 -28 -6 4 -9 1 -7 -7 2 -8 10 -36 17 -62 8 -26 22 -52 32 -58
11 -5 19 -18 19 -29 0 -10 5 -22 11 -26 6 -3 9 -15 6 -25 -3 -12 -1 -17 6 -12
6 4 8 0 4 -10 -3 -9 -2 -19 3 -22 4 -3 11 1 13 7 3 8 6 6 6 -4 1 -10 5 -18 10
-18 4 0 6 -12 3 -26 -4 -20 -2 -25 8 -19 9 5 10 2 5 -15 -5 -15 -4 -20 4 -16
6 4 11 3 11 -3 0 -5 7 -17 16 -25 8 -9 11 -16 5 -16 -6 0 -11 -4 -11 -10 0 -5
7 -10 15 -10 9 0 18 -12 21 -30 4 -16 11 -27 16 -24 5 3 6 -7 3 -23 -3 -15 -2
-22 1 -15 7 16 34 -3 34 -24 0 -8 4 -14 9 -14 5 0 14 -13 19 -30 6 -16 16 -35
22 -42 31 -37 61 -92 56 -104 -3 -8 -2 -13 2 -12 16 5 52 -24 52 -41 0 -10 16
-33 35 -52 20 -19 45 -50 57 -69 22 -36 37 -54 74 -93 12 -12 24 -32 28 -44 4
-12 16 -25 26 -28 20 -6 36 -39 32 -65 -2 -11 1 -10 8 3 6 9 16 15 21 12 5 -4
7 -11 3 -16 -3 -6 3 -17 15 -25 12 -8 21 -23 21 -33 0 -10 17 -27 40 -40 22
-12 40 -26 40 -32 0 -5 6 -9 13 -9 8 0 20 -12 28 -27 8 -15 31 -43 51 -62 72
-70 123 -117 156 -144 18 -15 30 -31 27 -37 -4 -6 -3 -9 2 -8 4 2 43 -26 86
-61 57 -47 74 -67 65 -74 -9 -6 -8 -7 5 -3 22 7 97 -49 98 -73 0 -11 2 -12 6
-3 2 6 9 12 14 12 6 0 9 -3 7 -7 -4 -9 49 -63 55 -57 2 2 14 -8 28 -23 19 -21
20 -25 6 -20 -11 4 -16 3 -12 -3 8 -12 16 -12 35 0 13 9 13 11 0 21 -13 9 -13
10 0 6 9 -2 14 -14 13 -26 -2 -12 1 -19 7 -16 5 3 18 -3 30 -15 11 -11 24 -20
29 -20 6 0 13 -4 16 -10 4 -6 -1 -7 -12 -4 -15 5 -15 4 -3 -5 8 -5 25 -8 37
-4 24 5 32 -11 11 -21 -7 -3 -1 -3 14 0 20 4 29 1 37 -15 6 -11 32 -27 59 -35
38 -12 40 -14 12 -10 -35 5 -35 5 -10 -9 14 -8 40 -13 58 -11 19 1 32 -3 32
-10 0 -14 56 -40 69 -32 5 4 26 -3 46 -14 19 -11 41 -20 47 -20 6 0 20 -7 30
-17 10 -9 18 -12 18 -6 0 12 -29 38 -50 46 -11 4 -9 6 5 6 12 1 38 -18 63 -44
23 -24 60 -56 82 -70 22 -14 40 -27 40 -30 0 -4 -19 3 -147 54 -44 18 -98 41
-243 108 -141 65 -404 228 -576 356 -297 221 -624 566 -816 862 -46 72 -138
224 -138 230 0 2 -15 29 -33 62 -30 52 -51 97 -164 341 -74 160 -157 441 -207
692 -80 408 -82 895 -5 1323 136 759 500 1447 1064 2013 105 104 239 229 299
277 123 98 416 296 438 297 4 0 25 -30 47 -67z m1252 -327 c55 -23 72 -48 64
-95 -4 -23 -11 -43 -15 -46 -5 -3 -7 -12 -4 -20 7 -18 -29 -130 -70 -215 l-31
-65 -6 160 c-4 88 -10 185 -14 215 -7 52 -6 57 16 67 13 7 25 12 25 12 1 1 17
-5 35 -13z m1157 -496 c19 -30 54 -77 77 -105 62 -74 161 -225 205 -315 58
-114 104 -286 103 -380 -1 -80 -29 -202 -62 -272 l-21 -43 8 45 c12 75 8 379
-7 455 -31 163 -83 306 -116 319 -11 4 -12 0 -4 -20 5 -14 7 -30 3 -35 -3 -5
-1 -9 4 -9 5 0 9 -6 10 -12 0 -7 5 -42 11 -78 11 -71 3 -240 -11 -240 -5 0 -6
-5 -3 -10 16 -27 -46 -170 -232 -535 -22 -44 -54 -122 -69 -174 -17 -54 -35
-96 -44 -99 -8 -3 -66 -29 -128 -58 -62 -30 -117 -54 -122 -54 -10 0 -24 256
-17 329 10 110 58 250 143 416 96 190 186 411 214 526 30 126 23 345 -15 454
-4 11 3 4 15 -15 13 -19 39 -60 58 -90z m1720 -337 c11 -21 27 -72 37 -113 14
-54 27 -82 47 -102 27 -25 67 -102 72 -134 1 -7 6 -17 10 -21 5 -4 5 15 1 42
-19 117 -7 145 61 145 38 0 46 -4 78 -44 20 -23 36 -50 36 -58 0 -8 3 -18 8
-22 4 -4 7 -11 8 -14 0 -4 8 -24 17 -46 9 -21 19 -48 21 -60 42 -206 58 -272
80 -329 27 -70 33 -95 15 -65 -41 71 -287 171 -573 233 -96 21 -142 16 -238
-25 l-71 -29 31 30 c19 19 36 28 44 23 7 -4 10 -4 6 1 -4 4 11 30 34 58 35 41
54 50 48 22 -1 -9 30 -38 36 -32 3 3 10 38 15 79 7 55 22 97 60 173 46 93 64
155 84 288 3 20 8 37 10 37 3 0 13 -17 23 -37z m-3765 -668 c4 -49 18 -144 32
-209 14 -66 24 -121 22 -122 -2 -2 -13 28 -26 67 -25 71 -45 99 -61 83 -5 -5
-4 -57 3 -124 7 -63 11 -187 9 -275 -2 -88 1 -178 7 -200 15 -61 30 -126 37
-165 9 -45 97 -132 158 -155 52 -20 98 -17 206 13 47 13 78 18 84 12 7 -7 5
-10 -4 -10 -7 0 -32 -9 -54 -19 -34 -16 -194 -75 -231 -85 -5 -2 -17 -5 -25
-9 -8 -3 -100 -37 -205 -76 -301 -111 -363 -131 -373 -118 -81 102 -115 420
-68 637 8 36 35 122 61 192 39 106 66 157 158 300 232 360 252 387 258 370 3
-9 9 -57 12 -107z m3835 -100 c108 -36 199 -68 202 -72 12 -13 -86 11 -244 60
-93 29 -171 58 -174 65 -6 19 10 15 216 -53z m-403 -17 c-22 -69 -27 -164 -17
-295 6 -76 14 -148 18 -160 5 -17 2 -23 -9 -23 -51 0 -429 -122 -657 -212
-236 -93 -251 -100 -279 -125 -13 -13 -28 -23 -33 -23 -5 0 -6 58 -2 133 5
120 -5 299 -21 338 -4 12 29 29 157 82 211 87 391 154 608 229 96 33 182 64
190 69 8 4 23 9 34 9 15 0 17 -5 11 -22z m642 -64 c-3 -3 -12 -4 -19 -1 -8 3
-5 6 6 6 11 1 17 -2 13 -5z m229 -154 c11 -77 14 -136 9 -221 -5 -96 -4 -117
9 -128 8 -7 18 -27 21 -44 4 -18 25 -90 48 -162 29 -92 41 -148 42 -192 0 -35
4 -56 8 -50 5 7 5 -6 0 -28 -4 -22 -8 -79 -8 -128 0 -48 -3 -87 -7 -87 -5 0
-8 -24 -8 -52 0 -29 -5 -71 -9 -93 -5 -22 -12 -56 -15 -75 -17 -110 -58 -284
-100 -425 l-14 -50 6 95 c12 167 2 1658 -12 1760 -12 91 13 -11 30 -120z
m-168 143 c-10 -2 -26 -2 -35 0 -10 3 -2 5 17 5 19 0 27 -2 18 -5z m609 -127
c9 -17 20 -51 24 -76 20 -114 39 -254 49 -350 6 -58 15 -150 21 -205 11 -107
0 -227 -56 -620 -13 -93 -27 -228 -30 -300 -6 -114 -15 -210 -31 -303 -28
-164 -187 -718 -203 -708 -3 2 -7 -7 -8 -21 -2 -36 -115 -258 -165 -324 -110
-144 -313 -364 -418 -450 -149 -124 -286 -230 -400 -311 -111 -78 -130 -89
-141 -83 -5 4 -8 2 -7 -3 3 -10 -79 -74 -177 -137 -194 -125 -287 -176 -475
-262 -131 -60 -160 -73 -168 -73 -5 0 -30 -11 -58 -24 -57 -27 -188 -72 -324
-111 -52 -15 -106 -31 -120 -36 -34 -11 -206 -44 -305 -59 -44 -6 -104 -16
-134 -21 -68 -11 -80 -11 -61 1 8 5 12 12 8 15 -3 3 -13 -1 -22 -11 -12 -12
-26 -14 -54 -10 -62 11 -74 17 -68 32 7 17 -6 18 -22 2 -8 -8 -15 -9 -22 -2
-8 8 1 19 27 37 21 14 65 53 98 87 l59 60 148 0 c85 0 157 -5 171 -11 46 -21
373 58 578 139 330 132 610 295 770 449 91 88 139 154 202 280 20 39 58 100
84 136 26 36 68 95 93 131 25 37 77 95 115 130 77 69 205 227 262 321 36 61
147 293 233 490 26 61 82 187 125 280 137 303 176 417 209 607 24 135 84 667
96 838 13 186 38 456 46 499 5 26 9 29 21 19 8 -6 22 -25 30 -42z m-2497 -246
c0 -5 -11 -20 -24 -35 -19 -21 -25 -40 -30 -113 -4 -48 -2 -132 3 -187 6 -55
8 -101 6 -103 -1 -2 -52 -20 -111 -42 -60 -21 -170 -61 -244 -89 -74 -29 -169
-62 -210 -76 -145 -46 -365 -125 -392 -141 -16 -8 -29 -12 -30 -7 -1 4 -2 80
-2 168 -1 88 -5 172 -9 186 -8 26 -6 27 115 77 68 28 242 101 388 163 512 215
540 226 540 199z m-3504 -242 c16 -146 37 -233 74 -310 12 -26 18 -53 14 -60
-4 -7 -4 -10 1 -6 4 4 25 -29 46 -73 51 -106 105 -183 173 -249 32 -30 66 -70
77 -87 12 -18 28 -33 37 -33 9 0 12 -3 6 -8 -11 -10 -157 -72 -229 -97 -27
-10 -65 -24 -83 -32 -18 -8 -43 -11 -55 -8 -15 4 -18 3 -9 -3 10 -6 -5 -16
-50 -32 -156 -58 -248 -113 -248 -149 0 -7 -4 -10 -8 -7 -5 3 -6 -8 -4 -25 5
-35 -5 -38 -18 -5 -15 41 -13 186 5 349 17 150 17 168 1 335 -22 234 -21 298
5 367 11 30 24 55 29 55 10 0 30 -55 30 -84 0 -27 66 -170 80 -174 5 -2 10 9
10 25 0 15 11 68 24 117 14 49 30 132 36 185 6 53 16 132 23 176 l12 80 2 -55
c2 -30 10 -117 19 -192z m5111 6 c145 -42 182 -54 157 -54 -5 0 -70 16 -144
35 -74 19 -159 40 -187 46 -58 13 -75 35 -18 25 19 -4 105 -27 192 -52z m-380
-3 c-10 -17 -17 -50 -17 -78 0 -26 -7 -79 -16 -118 -8 -38 -18 -123 -21 -187
-6 -112 -7 -118 -28 -118 -17 0 -284 -72 -357 -97 -17 -5 -18 5 -18 119 0 69
3 178 6 244 l7 119 221 82 c136 50 225 78 231 72 6 -6 3 -20 -8 -38z m683 -71
c0 -11 -14 -11 -50 0 -22 7 -21 8 13 9 20 1 37 -3 37 -9z m-1300 -138 c0 -10
-7 -28 -17 -41 -14 -21 -15 -46 -10 -204 4 -99 5 -178 1 -175 -3 3 -136 -38
-297 -92 -299 -100 -615 -227 -654 -263 -13 -11 -25 -18 -28 -16 -2 3 -11 93
-20 200 -9 106 -17 202 -18 212 -2 20 17 27 623 249 107 39 238 88 290 108
110 44 130 47 130 22z m-1866 -404 c5 -12 3 -19 -5 -22 -8 -3 -70 -23 -139
-45 -69 -22 -195 -68 -280 -102 -85 -34 -211 -84 -280 -111 -69 -27 -142 -60
-162 -74 -20 -13 -39 -20 -42 -16 -2 4 -5 88 -7 186 l-3 179 249 99 c138 55
340 135 450 178 l200 79 6 -167 c3 -92 9 -175 13 -184z m2713 -37 c48 -15 145
-46 216 -67 112 -34 154 -54 115 -54 -23 0 -438 135 -438 143 0 11 12 9 107
-22z m-2039 -2 c2 -9 -4 -24 -13 -32 -20 -21 -21 -246 0 -332 8 -33 11 -63 7
-67 -4 -4 -34 -16 -67 -27 -33 -10 -150 -53 -260 -94 -110 -41 -233 -84 -273
-96 -39 -12 -105 -35 -145 -52 -39 -16 -92 -37 -117 -45 -25 -9 -60 -25 -78
-36 -18 -11 -35 -19 -36 -17 -2 2 -9 96 -14 209 -6 113 -14 214 -17 226 -7 24
-2 26 405 173 124 45 304 110 400 145 96 36 182 64 190 63 8 -1 16 -10 18 -18z
m1729 -146 c-4 -82 -7 -205 -5 -274 l4 -126 -76 -18 c-41 -10 -205 -65 -365
-122 -159 -58 -330 -118 -380 -135 -49 -17 -94 -37 -98 -45 -4 -7 -15 -13 -24
-13 -14 0 -14 10 -7 83 12 112 6 334 -11 399 -7 29 -12 54 -11 55 7 7 422 158
611 223 127 43 253 87 280 98 95 38 91 44 82 -125z m1050 90 c-3 -10 -5 -4 -5
12 0 17 2 24 5 18 2 -7 2 -21 0 -30z m-4542 -172 l0 -179 -75 -30 c-253 -100
-441 -175 -480 -192 -25 -10 -110 -45 -190 -76 -80 -31 -152 -63 -161 -70 -33
-29 -49 -17 -49 34 -1 26 -5 79 -10 117 -5 39 -12 93 -16 120 l-6 50 94 36
c51 20 129 53 173 72 44 19 152 65 240 102 88 37 211 90 273 117 119 52 180
76 197 77 6 1 10 -65 10 -178z m4214 -99 c1 -50 -3 -69 -19 -89 -25 -33 -67
-172 -74 -249 -3 -34 -11 -74 -17 -90 -7 -16 -14 -39 -16 -52 -2 -12 -20 -64
-39 -115 -20 -50 -56 -148 -81 -216 -66 -183 -65 -181 -359 -458 -103 -98
-269 -223 -295 -223 -5 0 -39 -19 -76 -42 -38 -22 -84 -50 -103 -61 -19 -11
-57 -33 -85 -49 -57 -33 -216 -113 -290 -145 -125 -55 -160 -69 -315 -125
-153 -56 -300 -100 -309 -92 -2 2 2 71 9 153 7 83 10 193 7 246 -6 92 -6 95
16 99 12 3 51 10 87 16 177 33 390 113 618 232 357 187 532 323 845 656 206
219 359 438 443 632 35 84 40 90 45 64 4 -16 7 -58 8 -92z m-1822 -144 c-4
-46 -7 -159 -7 -251 0 -126 -3 -168 -12 -171 -7 -2 -56 -13 -108 -26 -110 -26
-313 -92 -449 -144 -60 -23 -101 -34 -115 -30 -52 17 -302 126 -312 137 -11
12 -40 145 -33 151 2 2 76 33 164 69 88 35 221 89 295 120 202 84 564 227 574
227 5 0 6 -36 3 -82z m-1783 54 c3 -5 -1 -20 -8 -33 -16 -32 -26 -217 -17
-332 l6 -88 -40 -10 c-22 -5 -60 -17 -85 -24 -25 -8 -95 -26 -156 -40 -118
-26 -601 -186 -640 -212 -30 -19 -28 -24 -49 144 -8 72 -20 146 -26 163 -6 17
-10 32 -8 34 2 1 51 22 109 46 58 23 213 88 345 143 509 211 556 229 569 209z
m-1746 -104 c15 -15 16 -54 2 -63 -5 -3 -10 -15 -10 -26 0 -10 -4 -19 -10 -19
-5 0 -19 -9 -30 -20 -13 -13 -33 -20 -59 -20 -38 0 -39 1 -50 46 -7 26 -11 47
-9 49 17 12 89 48 113 54 41 12 39 13 53 -1z m-861 -225 c-3 -10 -5 -4 -5 12
0 17 2 24 5 18 2 -7 2 -21 0 -30z m5509 -55 c-3 -24 -8 -85 -12 -135 l-7 -93
-72 -68 c-75 -72 -168 -145 -196 -155 -15 -5 -18 10 -29 111 -7 64 -18 151
-25 192 -7 41 -10 78 -6 81 3 4 62 24 131 44 69 20 143 43 165 50 58 19 58 19
51 -27z m-5492 -64 c3 -8 2 -12 -4 -9 -6 3 -10 10 -10 16 0 14 7 11 14 -7z
m1424 -50 c2 -16 -6 -26 -32 -38 -20 -9 -36 -19 -36 -20 0 -2 5 -50 11 -107 7
-73 17 -118 34 -152 17 -34 21 -49 12 -51 -6 -2 -82 -22 -167 -45 -85 -23
-167 -48 -183 -56 -26 -13 -28 -12 -44 18 -9 18 -38 86 -65 152 -27 66 -51
125 -54 130 -2 6 35 23 83 38 49 16 160 57 248 92 88 35 167 63 175 62 8 -1
16 -12 18 -23z m1585 -49 c72 -35 179 -81 237 -101 58 -20 191 -77 295 -127
105 -50 228 -103 275 -118 l85 -28 -3 -173 c-3 -228 -19 -480 -37 -598 -9 -52
-22 -144 -30 -205 -21 -155 -32 -207 -67 -315 -40 -122 -63 -168 -136 -265
-100 -135 -252 -259 -497 -404 -77 -46 -165 -103 -197 -127 l-56 -44 -50 33
c-45 29 -95 55 -327 169 -153 75 -346 234 -426 350 -51 74 -70 120 -102 243
-25 95 -35 170 -57 435 -5 63 -14 149 -20 190 -5 41 -14 152 -20 245 -6 94
-15 206 -20 250 -17 138 -25 124 103 174 187 73 775 381 872 457 17 13 33 24
38 24 4 0 67 -29 140 -65z m1943 13 c-3 -18 -9 -123 -12 -233 l-7 -201 -191
-48 c-105 -26 -252 -67 -326 -91 -279 -89 -351 -111 -355 -106 -3 2 -5 58 -5
125 0 117 -19 234 -43 264 -5 7 -7 15 -4 18 3 4 102 37 219 75 117 37 323 104
458 148 135 43 251 80 259 80 10 1 12 -8 7 -31z m-4878 -208 c0 -9 -3 -7 -8 5
-5 11 -8 29 -8 40 0 16 2 15 8 -5 4 -14 8 -32 8 -40z m1553 -345 c-1 -50 5
-141 14 -204 9 -62 14 -116 11 -118 -9 -10 -160 -43 -192 -43 -26 0 -49 16
-128 92 -54 50 -120 121 -147 157 l-50 66 43 8 c24 4 131 37 238 72 107 34
199 62 204 61 5 -1 8 -42 7 -91z m3868 -473 c-43 -132 -123 -300 -161 -339
-52 -54 -51 -38 2 33 49 63 61 94 39 94 -15 0 -42 -15 -134 -75 -44 -29 -100
-64 -125 -79 -25 -15 -76 -47 -115 -71 -96 -60 -297 -175 -370 -212 -89 -44
-607 -233 -641 -233 -11 0 -14 5 -9 18 6 15 44 150 82 293 l15 56 76 6 c84 6
306 59 442 105 334 115 644 281 825 441 64 57 101 84 103 75 2 -8 -11 -58 -29
-112z m176 108 c-3 -5 -11 -10 -16 -10 -6 0 -7 5 -4 10 3 6 11 10 16 10 6 0 7
-4 4 -10z m-3977 -169 c-2 -29 -7 -47 -13 -43 -25 14 -75 58 -75 64 0 7 52 25
78 27 9 1 12 -13 10 -48z m-888 -201 c8 -5 12 -11 9 -14 -3 -3 -14 1 -25 9
-21 16 -8 20 16 5z m826 -24 c6 -6 41 -29 77 -51 61 -37 66 -43 67 -75 0 -19
3 -53 6 -75 l5 -40 -19 40 c-11 22 -29 50 -41 62 -11 12 -21 29 -21 36 0 8 -9
17 -20 20 -11 3 -24 17 -30 32 -7 17 -15 25 -25 22 -8 -4 -12 -1 -9 6 2 7 -8
20 -23 30 -27 17 -27 18 -3 11 13 -4 29 -12 36 -18z"/>
<path d="M8552 9358 c-27 -27 -9 -53 116 -173 70 -67 144 -136 164 -154 40
-35 73 -38 92 -9 19 31 -21 83 -153 201 -167 149 -191 163 -219 135z"/>
<path d="M9038 8856 c-10 -7 -18 -24 -18 -38 0 -23 13 -44 87 -143 13 -17 48
-65 79 -108 67 -93 83 -104 116 -78 23 19 23 20 5 48 -9 15 -43 71 -75 123
-51 84 -154 211 -171 210 -3 0 -14 -7 -23 -14z"/>
<path d="M3326 7703 c-14 -21 -46 -94 -71 -163 -25 -69 -59 -159 -74 -200 -43
-116 -77 -268 -65 -288 15 -24 61 -44 84 -37 23 7 35 44 90 263 22 89 61 214
85 276 55 138 56 160 14 175 -18 6 -33 11 -35 11 -2 0 -15 -17 -28 -37z"/>
<path d="M3096 6883 c-22 -45 -37 -130 -43 -250 -5 -94 -3 -116 11 -138 21
-32 60 -33 79 -2 21 33 52 383 37 403 -21 25 -68 18 -84 -13z"/>
<path d="M2861 5674 c0 -11 3 -14 6 -6 3 7 2 16 -1 19 -3 4 -6 -2 -5 -13z"/>
<path d="M4610 3221 c0 -5 7 -11 14 -14 10 -4 13 -1 9 9 -6 15 -23 19 -23 5z"/>
<path d="M4860 3096 c0 -2 7 -6 15 -10 8 -3 15 -1 15 4 0 6 -7 10 -15 10 -8 0
-15 -2 -15 -4z"/>
<path d="M4930 3060 c0 -5 5 -10 11 -10 5 0 7 5 4 10 -3 6 -8 10 -11 10 -2 0
-4 -4 -4 -10z"/>
<path d="M5841 9144 c0 -11 3 -14 6 -6 3 7 2 16 -1 19 -3 4 -6 -2 -5 -13z"/>
<path d="M5943 9109 c0 -24 1 -36 4 -26 2 9 9 17 14 17 13 0 11 13 -4 34 -12
17 -14 14 -14 -25z"/>
<path d="M5881 8894 c0 -11 3 -14 6 -6 3 7 2 16 -1 19 -3 4 -6 -2 -5 -13z"/>
<path d="M9044 8137 c3 -10 6 -23 6 -29 0 -6 6 -8 14 -5 10 4 12 0 8 -15 -4
-15 -1 -19 13 -17 10 2 20 10 21 17 1 7 0 8 -3 2 -9 -19 -24 -10 -18 10 4 14
2 20 -9 20 -8 0 -20 8 -26 18 -11 16 -11 16 -6 -1z"/>
<path d="M9114 8036 c-5 -13 -2 -23 9 -31 10 -7 17 -21 17 -32 0 -10 4 -23 9
-28 5 -6 11 -21 13 -35 3 -22 4 -23 9 -5 3 11 -7 49 -22 85 -22 51 -29 61 -35
46z"/>
<path d="M9181 7854 c0 -11 3 -14 6 -6 3 7 2 16 -1 19 -3 4 -6 -2 -5 -13z"/>
<path d="M8918 7743 c7 -3 16 -2 19 1 4 3 -2 6 -13 5 -11 0 -14 -3 -6 -6z"/>
<path d="M8878 7733 c7 -3 16 -2 19 1 4 3 -2 6 -13 5 -11 0 -14 -3 -6 -6z"/>
<path d="M9340 6046 c0 -14 5 -28 10 -31 6 -4 10 7 10 24 0 17 -4 31 -10 31
-5 0 -10 -11 -10 -24z"/>
<path d="M9361 5904 c0 -11 3 -14 6 -6 3 7 2 16 -1 19 -3 4 -6 -2 -5 -13z"/>
<path d="M6670 2980 c-12 -11 -31 -22 -41 -25 -11 -4 -17 -11 -14 -16 10 -14
17 -11 59 26 40 36 37 50 -4 15z"/>
<path d="M3761 6754 c0 -11 3 -14 6 -6 3 7 2 16 -1 19 -3 4 -6 -2 -5 -13z"/>
<path d="M3772 6640 c0 -14 2 -19 5 -12 2 6 2 18 0 25 -3 6 -5 1 -5 -13z"/>
<path d="M3856 6445 c-9 -26 -7 -32 5 -12 6 10 9 21 6 23 -2 3 -7 -2 -11 -11z"/>
<path d="M3932 6250 c-18 -29 -15 -38 4 -12 9 13 14 25 12 27 -2 2 -9 -5 -16
-15z"/>
<path d="M3925 5980 c-3 -6 1 -7 9 -4 18 7 21 14 7 14 -6 0 -13 -4 -16 -10z"/>
<path d="M3778 5903 c7 -3 16 -2 19 1 4 3 -2 6 -13 5 -11 0 -14 -3 -6 -6z"/>
<path d="M3493 5835 c0 -33 2 -45 4 -27 2 18 2 45 0 60 -2 15 -4 0 -4 -33z"/>
<path d="M9000 5565 c-7 -9 -11 -17 -9 -20 3 -2 10 5 17 15 14 24 10 26 -8 5z"/>
<path d="M5635 5010 c-82 -43 -262 -131 -400 -195 -137 -64 -257 -119 -265
-124 -13 -7 -15 -50 -12 -312 2 -167 7 -331 12 -364 5 -33 14 -107 19 -165 28
-289 158 -491 476 -735 129 -99 162 -119 234 -141 118 -36 165 -16 516 215
132 86 321 276 365 365 39 79 67 214 80 386 6 74 20 203 32 285 19 137 20 162
9 288 -16 198 -13 193 -162 246 -186 66 -339 133 -489 215 -118 64 -236 117
-258 116 -4 -1 -74 -36 -157 -80z m255 -346 c0 -1 -10 -27 -21 -58 -28 -73
-19 -96 47 -120 27 -10 89 -41 137 -68 69 -39 91 -47 102 -38 7 6 32 42 55 81
l41 69 54 -47 53 -47 -41 -46 c-23 -25 -49 -51 -59 -58 -9 -7 -27 -26 -39 -43
-22 -31 -22 -32 -6 -103 9 -39 19 -88 23 -109 l5 -39 125 7 124 7 0 -71 c0
-67 -1 -71 -26 -77 -14 -4 -61 -3 -104 0 l-79 7 -14 -28 c-8 -15 -20 -48 -27
-73 -7 -25 -21 -63 -31 -84 l-19 -40 23 -24 c12 -13 50 -45 85 -70 l64 -45
-54 -54 -53 -54 -77 82 -77 81 -63 -39 c-35 -22 -83 -50 -107 -62 l-44 -23 7
-83 7 -83 -45 -26 c-54 -32 -64 -32 -68 -3 -3 19 -8 22 -45 19 -46 -4 -47 -3
-57 55 -5 30 -2 34 34 53 l40 20 0 65 0 64 -37 6 c-68 11 -137 28 -170 41 -30
13 -32 12 -65 -24 -18 -20 -49 -58 -67 -84 -19 -27 -39 -48 -46 -48 -6 0 -31
21 -55 46 l-45 45 30 27 c17 15 55 48 85 74 l54 46 -16 54 c-10 29 -20 73 -24
98 -4 25 -13 58 -21 74 -13 26 -18 28 -51 22 -21 -4 -72 -10 -114 -13 l-78 -6
0 39 c0 85 -3 83 138 83 69 0 129 4 134 9 7 7 33 146 40 212 4 47 -5 60 -92
126 -49 38 -90 73 -90 79 0 5 13 29 29 53 l29 42 23 -37 c13 -20 36 -52 53
-71 49 -55 146 -94 146 -58 0 14 134 95 175 106 31 9 29 41 -4 87 -17 23 -33
54 -37 68 -6 24 -4 27 17 25 43 -4 49 0 65 34 l17 34 53 -41 c30 -22 54 -41
54 -43z"/>
<path d="M5680 4369 c-25 -11 -57 -32 -72 -46 -28 -27 -37 -53 -18 -53 21 0
175 89 175 101 0 22 -36 21 -85 -2z"/>
<path d="M5850 4373 c0 -16 11 -23 45 -33 25 -7 66 -26 92 -42 50 -32 70 -27
59 16 -8 33 -72 66 -142 73 -49 5 -54 4 -54 -14z"/>
<path d="M5740 4230 c-8 -5 -25 -7 -38 -3 -36 9 -135 -97 -156 -168 -43 -143
4 -253 134 -313 36 -17 64 -21 145 -20 88 0 106 3 151 26 66 35 109 85 129
150 34 115 6 216 -74 267 -81 52 -137 71 -209 71 -37 0 -74 -5 -82 -10z"/>
<path d="M5506 4161 c-39 -75 -38 -321 1 -321 11 0 13 9 6 48 -10 66 -7 183 7
243 14 59 8 73 -14 30z"/>
</g>
</svg>
