<?xml version="1.0" standalone="no"?>
<!DOCTYPE svg PUBLIC "-//W3C//DTD SVG 20010904//EN"
 "http://www.w3.org/TR/2001/REC-SVG-20010904/DTD/svg10.dtd">
<svg version="1.0" xmlns="http://www.w3.org/2000/svg"
 width="300.000000pt" height="300.000000pt" viewBox="0 0 300.000000 300.000000"
 preserveAspectRatio="xMidYMid meet">
<metadata>
Created by potrace 1.10, written by Peter Selinger 2001-2011
</metadata>
<g transform="translate(0.000000,300.000000) scale(0.100000,-0.100000)"
fill="#000000" stroke="none">
<path d="M1850 2581 c-100 -33 -200 -117 -239 -205 -20 -43 -24 -46 -59 -46
-20 -1 -57 -5 -81 -9 -34 -7 -50 -5 -67 5 -12 8 -46 17 -75 20 -30 3 -87 17
-127 31 -63 23 -83 25 -158 20 -47 -2 -91 -10 -97 -16 -13 -14 3 -29 89 -86
67 -45 77 -79 31 -114 -65 -49 -188 -185 -221 -244 -43 -77 -51 -97 -38 -97 5
0 28 31 50 68 54 91 122 172 186 221 60 47 66 49 66 21 0 -11 -38 -58 -92
-112 -157 -158 -217 -291 -225 -503 -6 -145 10 -223 67 -340 49 -100 113 -182
190 -242 42 -32 60 -53 60 -69 0 -12 3 -30 7 -40 11 -30 -83 42 -172 131 -57
57 -91 102 -120 157 -40 77 -48 87 -60 68 -8 -13 79 -162 128 -218 48 -56 160
-149 204 -170 18 -9 35 -24 39 -34 3 -10 22 -34 41 -53 20 -19 34 -35 31 -35
-15 0 -127 55 -176 87 -66 42 -180 148 -227 213 -99 135 -154 304 -157 485
l-2 110 -5 -90 c-3 -49 -10 -95 -14 -102 -4 -7 0 -56 9 -110 26 -156 117 -318
241 -433 141 -130 203 -167 360 -211 122 -34 136 -35 178 -9 27 17 52 20 166
21 106 2 151 7 219 26 116 32 234 92 301 152 92 82 216 276 264 413 25 71 27
85 23 205 -5 143 -28 229 -78 293 -15 19 -31 46 -35 60 -13 43 -58 130 -67
130 -13 0 -10 -10 21 -85 27 -65 29 -75 21 -143 -4 -40 -10 -75 -12 -78 -3 -2
-8 21 -12 52 -10 84 -59 200 -119 279 -29 39 -58 90 -66 115 -10 34 -31 62
-85 114 -68 66 -69 68 -29 47 26 -13 44 -17 48 -11 4 6 -19 22 -49 36 -39 18
-58 33 -62 49 -8 34 12 87 49 128 33 38 117 87 147 87 30 0 32 28 3 47 -30 20
-168 29 -213 14z m125 -56 c-27 -13 -57 -30 -65 -37 -36 -30 -70 -87 -80 -133
-16 -73 4 -119 87 -191 36 -32 72 -73 79 -91 21 -50 18 -132 -7 -173 -36 -58
-100 -118 -133 -124 -17 -3 -48 -15 -69 -26 -20 -11 -37 -18 -37 -15 0 2 10
23 22 46 40 77 22 190 -49 306 -61 100 -75 170 -50 240 15 40 87 133 104 133
6 0 33 11 60 25 33 17 41 25 27 25 -34 0 -116 -48 -156 -91 -48 -52 -72 -125
-65 -195 4 -40 22 -85 71 -177 78 -147 86 -183 16 -71 -89 142 -114 201 -114
268 0 115 69 222 176 276 54 27 71 30 147 29 l86 0 -50 -24z m-802 -176 c54
-15 109 -73 131 -139 10 -30 21 -94 23 -142 5 -77 3 -90 -16 -116 -30 -43 -81
-153 -81 -177 0 -17 -2 -17 -10 -5 -5 8 -10 38 -10 67 0 62 -13 73 -46 42 -13
-12 -24 -18 -24 -13 0 5 -9 -2 -19 -15 -10 -14 -17 -30 -14 -37 2 -7 -1 -15
-8 -20 -8 -5 -10 -3 -4 6 5 8 4 11 -3 6 -6 -4 -9 -12 -6 -19 2 -7 -3 -21 -11
-32 -15 -19 -16 -19 -5 5 11 24 10 24 -5 5 -8 -11 -13 -25 -11 -32 3 -7 2 -13
-3 -13 -5 0 -14 -27 -21 -60 -13 -63 -8 -156 10 -174 15 -15 12 -22 -17 -35
-32 -15 -41 -7 -81 79 -19 39 -28 76 -30 128 -5 95 19 155 111 276 92 122 107
153 107 223 0 72 -27 123 -88 170 l-44 33 69 0 c37 0 85 -5 106 -11z m258 -79
c145 -99 199 -267 134 -421 -39 -95 -47 -128 -40 -165 l6 -34 -94 -45 c-52
-25 -99 -45 -104 -45 -6 0 -27 26 -47 58 -35 53 -37 61 -33 114 5 60 37 128
120 253 88 134 88 210 1 299 -46 47 -27 42 57 -14z m151 5 c-3 -20 -10 -25
-36 -25 -18 1 -44 11 -61 25 l-30 25 66 0 c65 0 66 0 61 -25z m-218 -21 c4 -9
4 -19 2 -22 -10 -9 -36 8 -36 23 0 20 26 19 34 -1z m219 -41 c24 -89 42 -143
47 -143 13 0 100 -136 110 -170 15 -52 12 -80 -14 -136 -20 -44 -30 -53 -72
-68 -27 -10 -60 -25 -73 -33 l-24 -15 5 68 c4 50 14 86 36 129 16 33 35 80 41
103 12 42 5 124 -9 103 -4 -7 -12 7 -19 31 -7 24 -26 67 -42 96 -27 48 -28 52
-10 52 11 0 22 -8 24 -17z m-185 -48 c2 -22 -2 -58 -9 -80 l-13 -40 -6 50 c-4
28 -11 65 -15 83 -6 31 -5 33 17 30 19 -2 24 -10 26 -43z m-324 -107 c-4 -7
-33 -47 -64 -88 -73 -97 -94 -133 -115 -199 -34 -106 -3 -264 64 -325 12 -11
21 -22 21 -26 0 -4 -28 -18 -62 -30 -35 -13 -70 -31 -79 -41 -9 -10 -18 -16
-21 -14 -10 11 2 277 16 337 18 79 62 178 105 241 46 68 165 194 135 145z
m1007 -110 c8 -15 8 -19 0 -14 -14 9 -14 -4 -1 -24 9 -13 11 -13 20 0 16 23
34 -8 69 -115 32 -98 51 -213 51 -302 0 -53 -24 -170 -38 -185 -4 -4 -6 91 -4
210 1 159 -1 223 -10 241 -19 36 -119 68 -171 54 l-39 -11 31 32 c32 33 61 93
61 126 0 24 15 18 31 -12z m-898 -178 c3 -33 3 -45 -2 -30 -5 16 -7 0 -5 -45
1 -38 3 -80 3 -92 1 -25 26 -53 47 -53 13 0 13 3 -1 17 -23 23 -35 58 -34 101
l0 37 24 -52 c13 -29 36 -64 50 -79 14 -14 25 -28 23 -30 -2 -2 -50 -19 -106
-38 -97 -33 -103 -34 -112 -16 -15 28 -12 136 5 178 16 37 96 165 100 160 1
-2 5 -28 8 -58z m914 4 l51 -17 4 -64 c2 -36 2 -66 0 -67 -1 -2 -30 4 -65 13
l-62 16 0 73 c0 45 4 70 10 68 5 -3 33 -12 62 -22z m-99 -54 c1 -74 0 -75 -55
-73 -7 1 -13 -4 -13 -9 0 -5 -10 -6 -21 -3 -16 5 -19 4 -14 -6 6 -9 3 -11 -9
-6 -9 4 -15 3 -12 -2 6 -10 -54 -35 -62 -26 -3 3 1 5 8 5 7 0 11 2 8 5 -8 8
-39 -6 -33 -15 2 -4 -7 -12 -20 -18 l-25 -12 0 68 0 68 123 46 c67 26 122 47
123 47 1 1 1 -30 2 -69z m308 -86 c9 -82 -11 -302 -37 -408 -29 -121 -59 -177
-136 -253 -167 -164 -403 -287 -568 -293 -69 -3 -71 -2 -45 25 20 21 32 25 84
24 66 -1 129 17 216 61 85 44 120 74 166 147 24 37 59 83 78 102 40 42 117
191 162 315 16 43 44 254 44 327 0 96 25 63 36 -47z m-587 -18 l0 -64 -112
-40 c-62 -22 -120 -43 -129 -47 -16 -6 -18 0 -18 51 l0 59 123 52 c67 28 125
52 129 52 4 1 7 -28 7 -63z m275 -60 c-6 -56 -10 -66 -26 -66 -10 0 -34 -7
-54 -15 l-35 -14 3 61 3 62 55 22 c30 12 56 21 58 19 2 -1 0 -32 -4 -69z m101
56 l60 -17 2 -61 c1 -69 1 -69 -85 -52 l-53 11 3 69 c2 37 5 68 8 68 3 0 32
-8 65 -18z m262 -117 c8 -106 -11 -205 -63 -320 -130 -287 -241 -393 -497
-470 -49 -15 -90 -25 -93 -23 -2 2 33 19 79 37 232 93 405 244 471 411 45 113
75 279 77 419 0 55 2 62 10 41 6 -14 13 -56 16 -95z m-497 17 l0 -59 -125 -45
-125 -45 -2 43 c-1 24 -2 51 -2 60 -1 11 32 28 114 59 63 23 121 43 128 44 8
1 12 -17 12 -57z m-430 -12 c0 -46 -3 -60 -15 -60 -8 0 -59 -17 -114 -39 -110
-42 -111 -42 -111 29 l0 38 113 45 c61 25 115 45 120 46 4 1 7 -26 7 -59z
m150 -88 l0 -59 -87 -33 c-49 -18 -97 -34 -108 -36 -11 -1 -28 -5 -38 -9 -16
-7 -18 -2 -15 51 l3 58 115 42 c63 23 118 43 123 43 4 1 7 -25 7 -57z m407
-23 l-2 -81 -35 6 c-21 3 -29 2 -22 -3 10 -6 7 -10 -13 -15 -14 -4 -31 -4 -37
0 -7 4 -8 3 -4 -4 5 -8 -2 -12 -18 -13 -31 -2 -33 -2 -70 -18 -16 -6 -30 -10
-32 -9 -1 2 -4 32 -5 67 l-3 64 120 43 c65 23 120 43 121 43 1 1 1 -35 0 -80z
m103 61 c37 -10 39 -12 29 -33 -32 -63 -66 -107 -81 -107 -16 0 -18 11 -18 81
0 66 3 80 14 76 8 -3 33 -11 56 -17z m-932 -52 c-3 -47 -5 -53 -25 -52 -12 0
-19 -4 -16 -9 4 -6 -1 -8 -11 -4 -11 5 -15 3 -10 -5 5 -7 0 -9 -14 -6 -14 4
-20 2 -15 -5 4 -7 0 -8 -11 -4 -11 5 -15 3 -10 -5 5 -7 0 -9 -14 -6 -14 4 -20
2 -15 -5 4 -7 0 -8 -13 -3 -10 4 -15 4 -11 0 4 -4 -7 -14 -24 -21 -18 -7 -33
-12 -34 -11 -1 2 -5 23 -8 48 l-6 45 112 47 c62 26 116 47 120 48 4 0 7 -24 5
-52z m972 -62 c-45 -161 -54 -180 -108 -232 -61 -60 -179 -131 -272 -165 -36
-13 -66 -27 -68 -31 -2 -4 -9 -8 -17 -8 -9 0 -12 18 -11 64 l1 65 35 6 c19 3
78 27 130 52 79 38 108 59 180 132 58 57 95 104 111 139 27 59 39 45 19 -22z
m-820 -25 l0 -58 -47 -14 c-27 -8 -52 -14 -58 -14 -5 0 -12 -3 -15 -6 -3 -3
-30 -15 -61 -27 l-57 -21 -7 46 c-4 25 -3 49 2 53 9 9 223 99 236 100 4 0 7
-26 7 -59z m410 -9 l0 -68 -67 -22 -66 -21 -56 22 c-88 35 -79 51 59 108 63
26 118 48 123 48 4 1 7 -30 7 -67z m-818 -12 c4 -61 -12 -66 -37 -11 -19 42
-14 61 15 61 15 0 19 -9 22 -50z m1235 -30 c-7 -58 -53 -160 -95 -210 l-30
-35 6 30 c3 17 20 47 38 69 31 37 74 139 74 178 0 10 3 18 6 18 4 0 4 -23 1
-50z m-161 -35 c-16 -25 -64 -61 -70 -54 -2 2 -6 22 -8 45 l-6 41 47 15 c43
13 46 13 49 -4 2 -11 -4 -30 -12 -43z m-946 15 c0 -5 -4 -10 -10 -10 -5 0 -10
-10 -9 -22 0 -22 1 -22 9 -3 8 18 9 17 9 -7 1 -16 0 -31 -1 -35 -2 -7 -53 -29
-82 -36 -9 -2 -51 72 -44 78 6 7 104 44 116 44 6 1 12 -3 12 -9z m410 -26 c47
-20 104 -44 127 -52 41 -16 42 -17 38 -57 -2 -22 -7 -77 -10 -121 -10 -157
-41 -213 -156 -289 l-72 -48 -56 28 c-77 37 -125 78 -146 121 -20 43 -50 327
-35 332 48 17 196 97 225 122 1 0 39 -16 85 -36z m417 -22 l2 -58 -92 -26
c-51 -15 -100 -29 -109 -33 -15 -6 -18 -1 -18 26 0 19 -3 43 -6 54 -5 19 6 25
103 57 59 19 110 36 113 37 3 0 6 -25 7 -57z m-770 -106 c1 -48 -2 -55 -25
-65 -23 -11 -29 -8 -64 26 -21 20 -38 40 -38 43 0 3 28 16 63 27 34 12 62 22
63 22 0 1 0 -23 1 -53z m883 -111 c-20 -47 -75 -115 -93 -115 -5 0 -34 -16
-65 -35 -53 -32 -185 -76 -196 -64 -3 2 3 30 12 62 15 50 20 57 42 57 67 0
278 97 305 140 17 27 14 -1 -5 -45z"/>
<path d="M1741 2269 c-1 -30 7 -61 23 -91 29 -54 86 -135 86 -122 0 5 -7 20
-17 33 -9 13 -17 34 -19 46 -1 13 -12 37 -24 53 -13 17 -29 52 -36 79 l-13 48
0 -46z"/>
<path d="M1790 2274 c0 -6 16 -38 35 -70 99 -165 102 -283 10 -393 -33 -38
-19 -41 17 -3 39 41 78 121 78 160 0 20 3 33 6 29 4 -3 6 -27 6 -53 -1 -26 1
-51 5 -57 12 -19 23 20 23 81 0 76 -19 117 -91 199 -28 32 -60 72 -70 88 -11
17 -19 25 -19 19z"/>
<path d="M1097 2319 c101 -112 86 -233 -57 -449 -80 -121 -96 -173 -81 -256 9
-48 35 -114 45 -114 8 0 -8 45 -17 52 -16 10 -21 117 -8 163 6 22 38 82 72
134 111 169 143 274 113 367 -8 27 -19 61 -24 77 -7 21 -5 27 6 27 8 0 12 -5
9 -10 -9 -14 22 -61 37 -57 6 1 22 -19 35 -44 23 -43 24 -51 14 -105 -11 -55
-22 -82 -78 -184 l-25 -45 51 55 51 55 0 -41 c0 -69 14 -59 27 18 14 90 16
208 4 241 -5 13 -33 41 -61 61 -50 36 -63 59 -21 36 12 -6 21 -8 21 -6 0 10
-56 34 -95 41 l-40 8 22 -24z"/>
<path d="M1456 2195 c4 -16 7 -57 7 -90 -1 -57 0 -57 6 -15 l6 45 23 -64 c29
-85 28 -122 -8 -233 -19 -58 -30 -113 -30 -148 1 -68 15 -49 23 31 6 60 51
181 59 158 12 -32 23 8 22 79 0 82 -6 96 -81 212 -27 43 -33 48 -27 25z"/>
<path d="M1388 1942 c-96 -158 -114 -223 -84 -297 20 -46 27 -45 14 2 -15 57
-4 114 37 195 79 152 87 169 83 173 -2 2 -25 -31 -50 -73z"/>
<path d="M1410 1834 c-39 -89 -52 -151 -40 -190 7 -24 8 -18 9 33 1 48 9 80
37 143 19 45 34 84 32 86 -3 2 -19 -30 -38 -72z"/>
<path d="M1670 1919 c0 -8 -18 -52 -40 -98 -48 -99 -51 -116 -9 -42 36 62 64
139 55 148 -3 4 -6 0 -6 -8z"/>
<path d="M1708 1894 c-3 -22 -20 -69 -37 -103 -45 -92 -38 -106 14 -27 44 68
51 94 36 146 -7 22 -8 21 -13 -16z"/>
<path d="M840 1576 c0 -14 5 -28 10 -31 6 -4 10 7 10 24 0 17 -4 31 -10 31 -5
0 -10 -11 -10 -24z"/>
<path d="M1118 1672 c-20 -41 -28 -73 -27 -108 l2 -49 8 62 c11 84 28 115 30
53 l1 -45 9 55 c15 87 7 97 -23 32z"/>
<path d="M2255 1337 c-4 -25 -5 -52 -3 -59 3 -7 8 11 13 40 4 29 5 56 2 59 -3
2 -9 -16 -12 -40z"/>
<path d="M1737 1431 c-43 -16 -81 -32 -85 -36 -4 -5 2 -5 13 -1 11 5 51 19 89
32 65 23 91 35 70 33 -5 0 -44 -13 -87 -28z"/>
<path d="M1335 1439 c-54 -22 -75 -36 -35 -24 37 12 107 44 95 44 -5 0 -32 -9
-60 -20z"/>
<path d="M2010 1184 c-60 -61 -119 -101 -210 -142 -41 -18 -61 -31 -45 -27 84
17 263 136 296 196 15 28 8 24 -41 -27z"/>
<path d="M1251 1142 l-93 -47 6 -108 c4 -73 12 -122 24 -150 21 -46 85 -109
136 -134 33 -15 35 -15 92 20 73 44 122 93 134 135 5 18 12 79 16 137 6 97 5
105 -12 111 -11 4 -57 24 -103 45 -46 22 -89 39 -95 38 -6 0 -53 -21 -105 -47z
m67 -31 c-25 -32 -35 -36 -58 -21 -11 7 -5 13 30 29 25 11 46 21 48 21 2 0 -7
-13 -20 -29z m138 -6 c56 -27 75 -42 80 -61 9 -34 -6 -66 -25 -55 -12 8 -12
12 -2 25 24 28 -34 91 -62 67 -14 -11 -22 -7 -56 32 -32 35 -23 34 65 -8z
m-83 -24 c-2 -16 6 -26 32 -38 33 -16 36 -16 49 3 12 15 17 16 27 7 10 -10 9
-17 -7 -35 -29 -33 -21 -68 17 -68 23 0 29 -4 29 -21 0 -17 -4 -20 -24 -15
-20 5 -26 1 -34 -24 -9 -26 -8 -32 11 -45 16 -11 18 -18 9 -27 -9 -9 -16 -7
-32 7 -18 16 -23 17 -45 5 -15 -8 -25 -22 -25 -35 0 -28 -7 -34 -31 -28 -19 5
-27 33 -9 33 6 0 10 8 10 19 0 29 -57 34 -75 7 -12 -16 -17 -18 -27 -7 -11 10
-9 16 7 29 32 26 19 66 -23 70 -45 5 -43 32 2 32 29 0 35 4 39 28 5 20 0 32
-17 47 -12 12 -20 27 -18 34 3 9 11 6 27 -9 22 -21 24 -21 55 -5 26 14 29 19
19 31 -10 13 -10 17 2 25 21 13 34 5 32 -20z m-148 -91 c-10 -17 -25 -1 -25
28 l0 26 16 -22 c8 -12 12 -27 9 -32z"/>
<path d="M1310 971 c-37 -70 39 -133 100 -83 28 22 30 70 4 89 -28 20 -91 17
-104 -6z m76 -32 c7 -12 -15 -31 -31 -26 -5 2 -11 11 -13 20 -4 19 32 24 44 6z"/>
<path d="M1855 889 c-43 -27 -106 -59 -139 -71 -33 -12 -54 -24 -48 -26 27 -9
272 116 272 139 0 11 8 15 -85 -42z"/>
<path d="M2000 2192 c0 -10 73 -82 83 -82 19 0 3 28 -33 58 -40 33 -50 38 -50
24z"/>
<path d="M905 2108 l-70 -73 73 70 c39 38 72 71 72 72 0 8 -11 -2 -75 -69z"/>
<path d="M2120 2125 c30 -30 57 -55 59 -55 3 0 -19 25 -49 55 -30 30 -57 55
-59 55 -3 0 19 -25 49 -55z"/>
<path d="M2110 2072 c0 -16 62 -92 71 -87 9 6 -10 42 -39 78 -16 18 -32 23
-32 9z"/>
<path d="M734 1879 c-14 -28 -24 -53 -22 -55 2 -2 16 21 31 51 15 30 25 55 22
55 -3 0 -16 -23 -31 -51z"/>
<path d="M686 1764 c-9 -26 -16 -52 -15 -58 0 -6 9 13 20 43 10 30 17 56 15
58 -2 2 -11 -17 -20 -43z"/>
<path d="M767 1778 c-27 -65 -39 -109 -33 -125 10 -24 22 -6 40 57 8 30 18 65
22 78 10 35 -14 27 -29 -10z"/>
<path d="M675 1619 c-8 -60 2 -209 16 -230 6 -9 7 9 2 51 -4 36 -7 102 -7 148
0 45 -1 82 -2 82 -1 0 -5 -23 -9 -51z"/>
<path d="M727 1613 c-12 -21 -17 -82 -7 -88 15 -9 16 -7 24 48 5 29 3 47 -3
47 -5 0 -12 -3 -14 -7z"/>
<path d="M714 1476 c-8 -22 -1 -59 14 -64 8 -2 12 9 12 37 0 40 -15 55 -26 27z"/>
<path d="M720 1353 c0 -16 5 -35 10 -43 15 -24 31 2 24 38 -8 40 -34 43 -34 5z"/>
<path d="M740 1266 c0 -25 12 -46 26 -46 16 0 16 5 8 38 -7 24 -34 31 -34 8z"/>
</g>
</svg>
