<?xml version="1.0" standalone="no"?>
<!DOCTYPE svg PUBLIC "-//W3C//DTD SVG 20010904//EN"
 "http://www.w3.org/TR/2001/REC-SVG-20010904/DTD/svg10.dtd">
<svg version="1.0" xmlns="http://www.w3.org/2000/svg"
 width="2048.000000pt" height="2048.000000pt" viewBox="0 0 2048.000000 2048.000000"
 preserveAspectRatio="xMidYMid meet">

<g transform="translate(0.000000,2048.000000) scale(0.100000,-0.100000)"
fill="#000000" stroke="none">
<path d="M13150 17805 c-401 -38 -665 -107 -964 -254 -285 -141 -529 -317
-709 -515 -89 -97 -289 -360 -344 -449 l-36 -60 -66 6 c-354 33 -920 34 -1201
3 -392 -44 -835 -136 -1206 -251 -62 -19 -116 -35 -121 -35 -5 0 -59 27 -119
60 -108 59 -304 130 -499 180 -254 65 -1016 26 -1295 -66 -97 -32 -135 -67
-135 -124 0 -47 22 -73 90 -107 89 -45 211 -130 286 -198 40 -37 126 -103 190
-146 111 -74 240 -182 229 -191 -3 -3 -70 -47 -150 -100 -721 -471 -1396
-1138 -1832 -1808 -573 -880 -894 -1784 -1015 -2860 -22 -197 -25 -888 -5
-1105 70 -745 229 -1359 517 -1995 201 -446 527 -967 831 -1331 44 -52 91
-110 105 -129 102 -136 324 -354 614 -603 684 -588 1498 -1012 2387 -1242 124
-32 199 -58 295 -103 154 -73 260 -106 317 -99 23 3 70 15 105 27 63 22 70 23
200 11 491 -43 971 -32 1431 35 711 103 1409 320 1985 618 88 45 198 98 245
116 139 55 436 209 578 300 309 197 707 555 978 879 90 107 208 264 286 380
72 108 159 234 193 281 667 924 1063 1985 1159 3110 71 822 -26 1648 -283
2420 -304 913 -753 1644 -1421 2310 -574 574 -1227 1026 -1873 1296 l-119 49
6 50 c23 206 125 409 308 616 117 130 171 176 328 276 259 165 348 204 587
253 186 38 204 44 237 78 76 81 42 188 -83 256 -70 38 -254 101 -362 124 -198
43 -441 57 -649 37z m408 -250 c90 -8 193 -23 230 -32 l66 -17 -44 -14 c-234
-75 -493 -193 -639 -290 -228 -153 -472 -458 -577 -724 -35 -88 -90 -305 -105
-416 -15 -118 -7 -301 20 -403 48 -187 237 -471 402 -606 35 -28 123 -97 194
-153 187 -146 255 -209 367 -339 111 -130 164 -225 222 -401 48 -148 67 -268
73 -470 5 -170 4 -178 -26 -293 -35 -138 -67 -200 -201 -394 -88 -127 -195
-252 -205 -241 -3 3 15 47 39 99 92 198 125 350 133 599 13 418 -29 596 -214
915 -152 261 -279 432 -379 508 -30 23 -110 110 -178 192 -67 83 -168 198
-224 258 -83 88 -172 207 -248 333 -21 35 -26 6 -9 -52 21 -73 64 -158 125
-249 100 -149 180 -286 249 -425 40 -80 94 -188 121 -240 83 -162 220 -585
235 -720 3 -36 13 -97 21 -137 38 -191 -11 -559 -100 -762 -42 -96 -174 -326
-241 -421 -66 -94 -288 -342 -373 -416 -60 -52 -79 -64 -108 -64 -31 0 -34 2
-34 30 0 17 12 48 26 70 27 41 60 142 97 300 19 83 22 122 22 320 -1 325 -27
457 -157 783 -111 279 -197 447 -355 697 -85 134 -214 380 -253 480 -18 47
-46 117 -63 155 -55 133 -98 301 -104 417 -14 249 60 598 169 796 54 99 190
283 333 453 155 183 219 279 187 279 -4 0 -50 -28 -102 -61 -106 -68 -183
-143 -311 -299 -129 -157 -195 -264 -256 -412 -159 -384 -168 -420 -167 -698
l0 -205 42 -161 c23 -89 63 -219 89 -290 58 -157 195 -439 290 -594 152 -251
329 -621 394 -825 29 -91 23 -89 -34 17 -74 137 -258 423 -349 542 -127 166
-200 280 -314 490 -109 202 -153 302 -205 476 -49 162 -64 288 -64 540 1 206
3 236 27 350 46 214 138 459 238 633 105 184 383 508 558 650 227 184 507 321
807 396 72 18 245 45 350 54 106 10 367 5 513 -8z m-2601 -1262 l31 -8 -24
-59 c-13 -32 -34 -90 -46 -127 l-22 -69 -111 0 c-62 0 -181 -6 -266 -14 -85
-8 -223 -20 -308 -26 -85 -6 -190 -18 -235 -26 -45 -8 -112 -19 -151 -25 l-70
-12 -60 36 c-92 54 -249 121 -365 157 -58 17 -109 35 -113 40 -22 21 558 109
858 130 83 5 170 12 195 14 74 6 652 -3 687 -11z m-3352 -44 c161 -14 285 -39
435 -88 136 -44 322 -139 416 -212 59 -45 247 -254 292 -324 98 -153 257 -637
328 -1000 16 -78 18 -153 18 -543 l1 -453 -44 -62 c-139 -197 -252 -381 -329
-537 -97 -196 -101 -197 -83 -15 6 61 11 165 11 231 1 65 7 155 15 199 22 120
52 312 60 380 3 33 12 92 20 130 21 105 55 376 61 495 12 202 -53 663 -109
767 -28 54 -234 245 -347 322 -95 65 -220 136 -220 126 0 -4 21 -34 47 -68
225 -297 283 -398 323 -567 34 -142 37 -286 10 -456 -60 -381 -123 -575 -270
-829 -35 -61 -101 -175 -145 -255 -177 -313 -213 -372 -354 -583 -343 -511
-478 -731 -544 -887 -90 -214 -180 -527 -213 -740 -21 -140 -22 -343 -1 -445
9 -44 19 -105 22 -135 25 -217 73 -399 129 -488 34 -54 46 -86 38 -99 -4 -5
-52 -24 -107 -43 -55 -18 -118 -43 -140 -56 -22 -12 -52 -27 -67 -33 -30 -11
-12 -30 -194 196 -31 39 -71 108 -103 180 -29 65 -86 186 -126 268 -101 209
-147 356 -184 595 -17 107 -33 240 -37 295 -11 179 19 396 83 590 44 135 148
396 196 490 65 131 265 433 366 555 48 58 120 150 161 205 40 55 108 141 150
190 122 143 395 536 454 653 50 99 100 255 123 377 27 151 25 479 -5 589 -51
186 -217 490 -362 665 -70 84 -180 175 -291 242 -52 31 -136 83 -188 115 l-93
59 178 5 c328 10 498 10 619 -1z m1246 -229 c24 -16 86 -72 138 -124 l94 -94
-39 -11 c-21 -6 -43 -10 -49 -10 -12 1 -237 240 -243 257 -7 23 55 12 99 -18z
m438 -89 c70 -31 184 -97 313 -181 112 -73 235 -153 273 -178 156 -101 304
-238 488 -451 67 -78 261 -370 301 -455 74 -153 107 -249 151 -430 49 -203 67
-304 86 -497 27 -285 -36 -644 -164 -929 -61 -136 -187 -388 -187 -373 0 12
81 258 111 335 16 43 43 135 61 205 30 120 32 139 33 308 1 510 -42 740 -198
1050 -56 113 -103 179 -206 289 -49 54 -104 123 -122 154 -65 117 -234 371
-248 371 -9 1 -11 -5 -6 -16 25 -62 58 -176 86 -293 17 -74 54 -200 80 -280
27 -80 60 -185 74 -234 14 -49 41 -126 60 -172 48 -115 112 -354 120 -444 7
-75 -7 -294 -26 -425 -14 -92 -53 -235 -96 -354 -156 -431 -229 -666 -279
-893 -24 -110 -27 -145 -28 -333 -1 -194 1 -220 27 -337 15 -70 27 -138 27
-152 0 -21 -22 -36 -167 -114 -93 -50 -197 -104 -233 -120 -36 -16 -85 -38
-110 -49 -133 -61 -206 -90 -308 -124 -105 -36 -115 -38 -136 -23 -13 8 -29
29 -36 47 -33 91 -80 176 -128 231 -77 88 -192 248 -245 341 -53 92 -71 166
-88 357 -13 147 -7 234 27 387 49 219 156 479 275 672 37 60 101 171 142 247
40 75 120 208 178 294 57 86 133 204 169 263 36 59 109 168 162 243 163 230
246 417 309 697 33 150 36 233 13 396 -27 200 -89 352 -201 500 -214 281 -245
315 -417 467 -33 28 -57 52 -54 52 3 0 56 -22 117 -49z m1490 -77 l74 -6 -7
-51 c-3 -29 -11 -106 -17 -172 -6 -66 -12 -121 -13 -122 -1 -1 -102 -5 -224
-9 l-223 -7 -72 70 c-70 69 -120 108 -260 204 -37 26 -64 49 -60 52 4 2 55 10
113 17 58 7 143 18 190 25 82 12 331 11 499 -1z m2226 -133 c873 -429 1481
-925 2030 -1656 463 -616 816 -1347 999 -2070 47 -189 106 -488 126 -640 6
-49 13 -101 16 -115 14 -62 -10 1 -71 195 -76 240 -107 308 -224 493 -99 157
-144 210 -205 242 -50 27 -40 5 -156 345 -74 217 -150 399 -223 530 -77 140
-127 222 -145 241 -37 38 -119 -11 -106 -62 4 -15 35 -86 69 -158 34 -72 90
-203 125 -291 34 -88 81 -209 105 -270 24 -60 58 -163 75 -228 l32 -117 -21
-68 c-32 -104 -49 -223 -76 -547 -35 -423 -34 -420 -56 -249 -78 606 -302
1263 -610 1789 -151 259 -337 518 -515 719 -144 161 -134 144 -159 279 -13 67
-31 145 -40 172 -30 86 -74 193 -105 255 -53 105 -310 405 -434 507 -33 26
-93 77 -135 113 -42 36 -115 97 -162 137 -87 73 -186 179 -176 189 3 3 36 -11
74 -30 165 -88 366 -176 398 -176 56 0 96 71 63 111 -35 42 -217 140 -393 210
-66 26 -160 65 -210 87 -85 37 -91 42 -107 83 -18 47 -23 89 -10 89 4 0 106
-49 227 -109z m-3700 -187 c33 -51 68 -105 78 -122 l17 -30 -91 -21 c-50 -12
-96 -21 -103 -21 -7 0 -18 19 -25 43 -7 23 -29 79 -48 125 -20 45 -34 84 -32
86 9 7 115 34 129 32 8 -1 42 -42 75 -92z m-1846 -139 c40 -62 116 -214 109
-220 -2 -1 -21 -12 -43 -23 -152 -78 -585 -434 -827 -679 -160 -161 -444 -477
-594 -659 -93 -113 -206 -283 -279 -419 -26 -49 -92 -170 -147 -267 -97 -173
-149 -285 -163 -346 -7 -35 17 -67 60 -78 37 -9 54 1 72 43 8 21 30 63 48 93
437 733 559 913 856 1252 285 325 709 685 992 842 l67 37 0 -110 c0 -102 -19
-243 -37 -275 -4 -8 -62 -55 -128 -106 -258 -196 -576 -490 -786 -725 -739
-829 -1162 -1827 -1249 -2944 -13 -174 -13 -591 1 -796 13 -200 40 -413 78
-620 48 -256 45 -234 27 -205 -8 14 -23 48 -32 75 -9 28 -29 75 -44 105 -15
30 -51 106 -81 168 -29 61 -57 112 -61 112 -4 0 -8 6 -8 14 0 20 -40 86 -51
86 -5 0 -9 5 -9 11 0 12 -30 44 -30 32 0 -4 -4 -2 -9 6 -6 10 -27 14 -63 14
l-53 0 3 101 c1 56 -1 157 -5 225 -8 119 -9 125 -35 144 -23 17 -34 19 -64 11
-59 -15 -76 -47 -82 -156 -5 -111 12 -288 33 -328 8 -16 24 -31 35 -35 20 -6
20 -7 1 -31 -16 -21 -48 -132 -57 -199 -1 -11 -3 -23 -3 -27 -2 -13 -41 5 -41
19 0 9 -9 43 -19 77 -21 66 -49 166 -57 205 -3 13 -12 40 -20 60 -14 33 -16
34 -26 16 -13 -22 -14 -87 -9 -468 2 -152 1 -280 -2 -283 -3 -4 -14 -3 -24 0
-10 4 -20 7 -22 6 -2 -1 -7 4 -12 11 -4 8 -12 10 -16 5 -10 -9 -11 -147 -1
-196 3 -19 14 -84 23 -145 9 -60 36 -171 60 -245 24 -74 51 -162 60 -195 19
-67 104 -268 117 -273 4 -2 8 -10 8 -18 0 -9 5 -25 12 -37 7 -12 13 -26 14
-32 5 -24 35 -84 44 -90 6 -4 8 -11 5 -16 -4 -5 -1 -9 5 -9 6 0 9 -4 5 -9 -3
-5 -1 -12 4 -16 6 -3 20 -26 32 -50 12 -25 27 -45 32 -45 6 0 8 -3 4 -6 -3 -4
0 -13 8 -21 8 -8 15 -22 15 -32 0 -9 9 -27 19 -38 11 -12 17 -24 14 -27 -4 -3
-1 -6 5 -6 7 0 12 -6 12 -13 0 -7 9 -23 20 -35 11 -12 20 -26 20 -32 0 -6 7
-13 15 -16 8 -4 12 -10 9 -15 -3 -5 -1 -9 4 -9 6 0 12 -10 16 -23 3 -12 14
-32 26 -44 11 -12 20 -25 20 -28 0 -23 185 -287 225 -320 7 -6 15 -19 18 -30
4 -11 25 -39 47 -63 21 -24 42 -51 45 -60 3 -9 22 -35 43 -57 20 -22 44 -52
53 -65 28 -42 195 -240 282 -334 171 -186 518 -525 608 -595 15 -11 42 -35 61
-53 19 -18 49 -44 65 -58 17 -14 54 -45 83 -70 28 -25 59 -49 68 -54 10 -5 28
-20 41 -33 62 -61 409 -313 431 -313 5 0 10 -4 10 -10 0 -5 11 -12 24 -16 14
-3 27 -12 30 -20 3 -8 14 -14 25 -14 11 0 21 -4 23 -9 4 -10 198 -114 198
-106 0 3 11 -2 25 -11 14 -9 25 -13 25 -9 0 5 9 0 19 -9 11 -10 25 -19 33 -20
7 -1 33 -12 58 -24 51 -24 111 -41 186 -51 42 -6 63 -17 125 -68 41 -33 93
-72 117 -87 23 -14 42 -28 42 -31 0 -16 -502 196 -705 298 -390 194 -857 507
-1189 796 -140 121 -567 563 -682 706 -319 396 -576 817 -774 1270 -28 66 -67
152 -85 190 -70 148 -180 484 -249 762 -124 493 -170 876 -170 1393 0 339 15
549 59 857 154 1069 595 2068 1295 2933 288 355 684 744 1025 1005 151 116
570 394 595 395 3 0 25 -29 49 -65z m2047 -571 c19 -9 47 -32 64 -51 35 -39
34 -48 -5 -218 -31 -132 -84 -279 -132 -362 l-38 -68 -7 235 c-4 129 -14 282
-22 339 -9 57 -13 108 -10 113 18 29 100 36 150 12z m1740 -641 c50 -91 150
-234 218 -312 73 -84 258 -362 313 -471 63 -124 96 -216 143 -395 40 -153 42
-165 37 -270 -7 -131 -38 -266 -98 -418 -23 -59 -43 -106 -44 -105 -1 2 9 66
22 143 24 136 24 147 14 365 -14 313 -51 515 -127 699 -59 141 -105 190 -74
79 50 -180 52 -443 5 -651 -24 -105 -39 -139 -235 -532 -169 -338 -216 -443
-245 -538 -19 -65 -35 -124 -35 -131 0 -7 -21 -21 -47 -31 -44 -17 -88 -37
-321 -146 -46 -21 -84 -39 -85 -39 -1 0 -2 35 -3 78 0 42 -6 133 -13 202 -17
163 -4 285 49 476 55 197 84 268 196 477 142 267 283 617 335 839 31 131 32
136 25 308 -6 178 -19 265 -54 378 -11 34 -19 62 -17 62 2 0 20 -30 41 -67z
m2849 -694 c19 -39 46 -122 61 -184 22 -96 30 -115 51 -126 38 -20 82 -91 130
-209 46 -114 55 -109 23 15 -24 94 -25 136 -5 175 20 39 43 50 103 50 77 0
121 -38 176 -152 65 -134 101 -250 136 -443 20 -107 48 -218 76 -300 112 -322
146 -580 114 -858 l-10 -89 29 -33 c16 -19 32 -48 36 -67 4 -18 29 -100 55
-183 59 -183 99 -360 100 -440 3 -141 -25 -483 -56 -700 -35 -241 -124 -618
-183 -775 l-21 -55 5 50 c22 222 26 520 15 1225 -6 415 -12 951 -14 1190 -4
437 -12 546 -45 609 -20 36 -190 143 -291 182 -52 20 -153 55 -225 77 -473
148 -590 155 -825 51 l-65 -29 91 87 c50 49 106 108 126 132 l35 44 33 -62
c18 -34 34 -60 36 -58 2 1 13 70 24 152 l22 149 59 100 c81 137 123 278 144
479 4 37 11 67 17 67 5 0 24 -32 43 -71z m-6036 -994 c1 -70 39 -307 77 -485
14 -67 24 -124 21 -126 -5 -5 -9 7 -62 158 -29 83 -54 114 -81 104 -14 -5 -16
-16 -10 -69 4 -34 12 -111 19 -172 7 -60 12 -238 12 -395 l0 -285 37 -155 c20
-85 41 -168 48 -184 17 -46 69 -106 134 -153 70 -51 103 -67 178 -82 47 -10
63 -9 119 9 35 11 73 20 84 20 11 0 38 9 60 19 64 29 110 34 129 15 22 -21 13
-32 -32 -40 -20 -3 -46 -12 -57 -19 -23 -14 -390 -144 -480 -170 -33 -9 -64
-20 -70 -24 -5 -5 -64 -27 -130 -51 -66 -24 -181 -66 -255 -93 -74 -27 -193
-69 -265 -94 -150 -50 -135 -55 -190 62 -53 112 -75 220 -95 463 -10 123 0
293 26 432 17 95 107 370 163 500 38 87 181 317 395 635 67 99 142 213 166
253 l45 73 7 -43 c3 -24 7 -70 7 -103z m6178 -239 c188 -63 366 -118 395 -122
56 -7 100 -23 65 -24 -34 0 -261 51 -377 86 -422 125 -460 139 -460 166 0 15
5 19 18 15 9 -3 171 -58 359 -121z m-681 -8 c-38 -214 -40 -239 -28 -453 6
-115 18 -233 25 -262 16 -57 12 -63 -37 -63 -29 0 -344 -92 -571 -166 -93 -30
-289 -103 -435 -160 -420 -166 -456 -182 -468 -208 -11 -24 -48 -40 -58 -25
-3 5 0 83 7 173 13 178 0 438 -26 539 -7 29 -13 53 -12 53 3 2 239 101 371
156 174 72 764 291 881 327 55 17 152 51 215 75 142 55 144 55 136 14z m2099
-323 c49 -77 94 -377 158 -1063 10 -115 9 -139 -21 -395 -18 -149 -49 -398
-71 -552 -27 -198 -42 -350 -50 -520 -18 -365 -46 -520 -206 -1103 -133 -490
-315 -889 -507 -1118 -231 -274 -488 -543 -614 -642 -40 -31 -149 -118 -241
-193 -208 -168 -314 -246 -535 -395 -95 -64 -198 -136 -228 -159 -89 -68 -353
-235 -517 -328 -128 -73 -446 -220 -718 -332 -409 -169 -829 -284 -1290 -352
-252 -37 -354 -40 -458 -13 l-48 13 23 25 23 25 -37 -22 c-30 -18 -41 -20 -58
-11 -19 10 -17 14 37 57 32 26 106 92 166 146 l107 100 241 -2 c191 -2 247 -5
273 -17 29 -14 43 -13 186 16 85 17 240 53 344 81 524 139 1265 515 1566 795
188 175 244 248 353 461 42 83 101 182 131 219 29 38 70 96 91 129 77 122 188
256 268 324 45 38 107 100 139 138 150 181 190 231 212 263 64 96 142 240 202
370 36 80 94 206 129 280 35 74 95 207 133 295 60 139 189 426 290 648 58 126
150 382 176 490 39 158 71 358 106 662 17 149 42 362 55 475 13 113 29 284 35
380 6 96 15 220 20 275 5 55 14 163 20 240 10 134 36 345 46 374 6 19 30 -2
69 -64z m-4005 -401 c0 -16 -11 -37 -29 -53 -28 -26 -30 -35 -40 -142 -17
-175 -10 -385 15 -485 5 -20 -3 -25 -98 -54 -57 -17 -164 -57 -238 -87 -157
-64 -497 -189 -620 -227 -161 -51 -575 -199 -595 -212 -44 -31 -45 -28 -39
219 5 164 3 250 -6 292 -6 33 -12 66 -13 74 -1 10 57 39 178 89 99 40 284 118
410 172 127 54 293 124 370 155 77 31 217 90 310 130 194 84 364 152 383 154
7 1 12 -10 12 -25z m-5600 -353 c31 -291 57 -385 174 -650 108 -244 178 -351
341 -521 71 -75 125 -139 125 -150 0 -14 9 -21 36 -26 19 -3 32 -10 27 -14
-11 -11 -250 -108 -418 -170 -227 -85 -466 -179 -524 -208 -49 -24 -76 -46
-135 -111 -10 -11 -24 -46 -30 -78 l-12 -58 -19 45 c-30 71 -32 304 -5 485 31
200 36 418 16 580 -10 72 -20 227 -23 345 -5 200 -4 218 14 260 11 25 26 60
33 78 13 33 40 44 40 16 0 -8 4 -13 9 -9 10 5 13 -9 26 -103 3 -24 32 -102 64
-174 56 -126 59 -130 66 -97 4 19 29 126 57 239 36 151 52 238 58 330 5 69 20
177 32 240 l23 115 7 -129 c3 -71 12 -177 18 -235z m7560 229 c-8 -5 -19 -10
-25 -10 -5 0 -3 5 5 10 8 5 20 10 25 10 6 0 3 -5 -5 -10z m390 -189 c68 -17
274 -77 470 -137 126 -39 56 -26 -155 27 -175 45 -352 88 -422 104 -13 3 -23
10 -23 15 0 15 47 12 130 -9z m-360 -28 c0 -14 -7 -34 -16 -44 -10 -12 -19
-50 -25 -116 -4 -54 -16 -138 -24 -188 -34 -194 -45 -284 -45 -387 l0 -108
-27 0 c-36 0 -336 -78 -479 -124 -61 -20 -114 -36 -118 -36 -4 0 -6 173 -5
384 l2 384 196 73 c108 40 266 99 351 130 85 32 163 58 173 59 12 0 17 -8 17
-27z m947 -139 c-3 -3 -12 -4 -19 -1 -8 3 -5 6 6 6 11 1 17 -2 13 -5z m138
-14 c7 -12 -58 -12 -95 0 -19 6 -12 8 32 9 31 1 60 -3 63 -9z m-2093 -215 c9
-21 7 -30 -17 -65 l-28 -40 7 -227 c3 -126 9 -254 12 -285 6 -50 4 -58 -10
-58 -37 0 -882 -287 -1046 -356 -313 -130 -472 -202 -496 -225 -13 -12 -26
-21 -28 -18 -2 2 -9 87 -16 189 -10 179 -35 433 -46 476 -5 20 17 30 283 129
158 59 345 127 415 151 71 23 199 70 285 103 87 33 239 89 338 125 99 36 212
78 250 95 39 16 73 30 78 30 4 1 13 -10 19 -24z m-3005 -292 c0 -175 10 -301
29 -379 5 -19 2 -24 -14 -24 -31 0 -365 -108 -472 -153 -145 -60 -333 -134
-455 -179 -235 -87 -415 -166 -479 -211 -23 -16 -30 -17 -37 -6 -5 8 -9 21 -9
29 0 8 -2 135 -3 282 l-3 266 210 86 c116 46 400 160 631 251 231 92 458 182
505 200 47 19 88 34 91 35 3 0 6 -89 6 -197z m2013 159 c0 -8 -32 -21 -90 -38
-8 -2 8 7 35 20 59 29 55 28 55 18z m3547 -159 c-3 -10 -5 -2 -5 17 0 19 2 27
5 18 2 -10 2 -26 0 -35z m-10 -135 c-3 -8 -6 -5 -6 6 -1 11 2 17 5 13 3 -3 4
-12 1 -19z m30 -175 c-2 -16 -4 -3 -4 27 0 30 2 43 4 28 2 -16 2 -40 0 -55z
m-23 -166 c-10 -55 -20 -94 -22 -87 -3 7 4 57 14 111 11 55 21 94 23 87 2 -6
-5 -56 -15 -111z m-1229 63 c66 -22 167 -54 225 -71 252 -73 360 -111 360
-125 0 -8 -3 -14 -7 -14 -9 0 -359 109 -565 177 -86 28 -148 53 -148 61 0 17
2 17 135 -28z m-3235 1 c15 -28 13 -36 -16 -71 l-26 -31 5 -207 c4 -155 10
-229 25 -297 12 -49 17 -93 14 -97 -4 -4 -102 -41 -217 -82 -116 -41 -300
-109 -410 -151 -110 -42 -261 -94 -335 -116 -74 -22 -189 -63 -255 -91 -66
-28 -159 -65 -207 -84 -48 -18 -96 -42 -108 -54 -26 -26 -46 -21 -43 11 5 77
-20 573 -33 627 -8 35 -14 67 -14 71 0 14 199 89 880 333 124 45 333 121 465
169 132 48 245 87 252 88 7 1 17 -8 23 -18z m2778 -211 c-13 -271 -15 -551 -5
-621 l8 -56 -138 -33 c-79 -19 -244 -72 -388 -125 -137 -51 -302 -109 -365
-130 -63 -21 -189 -66 -280 -100 -91 -35 -192 -71 -225 -81 -36 -11 -71 -29
-87 -46 -27 -28 -58 -29 -58 -3 0 7 7 69 16 137 22 170 15 501 -13 603 -11 39
-23 77 -27 86 -6 13 49 37 321 139 180 67 469 170 641 227 173 57 348 118 390
135 74 29 215 78 219 75 0 -1 -3 -94 -9 -207z m-5591 73 c-5 -32 -7 -163 -4
-294 l6 -236 -42 -13 c-23 -6 -118 -45 -212 -85 -93 -40 -226 -94 -295 -120
-69 -26 -195 -76 -280 -110 -85 -35 -200 -80 -255 -100 -149 -56 -357 -145
-384 -167 -51 -39 -50 -41 -71 192 -7 69 -18 159 -26 200 -25 132 -33 120 124
180 75 29 163 66 194 81 31 16 112 51 180 78 69 27 196 81 284 119 306 134
772 331 785 332 3 0 2 -26 -4 -57z m6744 -391 c2 -121 2 -123 -25 -151 -43
-45 -116 -281 -116 -376 0 -86 -30 -195 -115 -425 -31 -85 -84 -231 -116 -325
-33 -93 -72 -197 -88 -230 -37 -80 -132 -197 -238 -292 -48 -43 -143 -132
-212 -199 -215 -206 -373 -325 -557 -417 -49 -25 -155 -84 -234 -132 -350
-211 -665 -359 -1095 -517 -297 -108 -561 -182 -542 -151 27 44 53 613 34 740
l-8 52 38 6 c128 20 351 68 423 90 160 50 524 206 730 312 579 299 844 514
1473 1191 226 244 484 649 608 956 l24 58 7 -33 c3 -19 8 -89 9 -157z m-2917
-299 c-3 -104 -9 -285 -13 -403 l-6 -215 -47 -6 c-125 -18 -549 -147 -800
-245 -106 -41 -201 -74 -211 -74 -10 0 -82 26 -160 59 -399 165 -387 159 -387
210 0 14 -9 64 -19 111 -11 47 -18 86 -17 87 1 1 67 27 146 59 80 31 249 100
375 154 127 54 307 128 400 165 94 37 287 113 430 170 143 56 267 105 275 108
41 15 41 15 34 -180z m-2851 143 c3 -8 -6 -37 -20 -63 l-25 -48 4 -308 3 -308
-25 -5 c-14 -3 -72 -19 -130 -35 -58 -16 -190 -49 -294 -74 -221 -54 -960
-299 -1023 -341 -35 -22 -41 -18 -47 34 -3 26 -15 121 -26 212 -11 91 -28 195
-38 232 l-19 67 121 50 c67 27 191 79 276 116 85 37 277 116 425 177 149 60
313 128 365 150 182 78 395 157 421 158 15 0 29 -7 32 -14z m-2773 -215 c0 -9
-7 -26 -15 -37 -8 -10 -15 -34 -15 -51 0 -27 -4 -33 -21 -33 -11 0 -32 -13
-45 -30 -29 -34 -74 -46 -124 -33 -35 9 -43 24 -64 120 -7 30 -5 32 61 68 37
20 93 42 123 50 54 13 56 12 78 -12 12 -13 22 -32 22 -42z m-570 -61 c0 -5 -2
-10 -4 -10 -3 0 -8 5 -11 10 -3 6 -1 10 4 10 6 0 11 -4 11 -10z m7995 -280 c4
-6 2 -25 -4 -43 -6 -17 -15 -111 -20 -207 l-9 -174 -88 -84 c-185 -173 -348
-292 -370 -270 -2 3 -11 69 -19 149 -9 79 -20 182 -25 229 -5 47 -16 119 -24
160 -8 41 -12 78 -8 81 7 5 45 17 372 114 206 62 187 58 195 45z m360 -20 c-3
-5 -10 -10 -16 -10 -5 0 -9 5 -9 10 0 6 7 10 16 10 8 0 12 -4 9 -10z m-4075
-150 c0 -5 -4 -10 -9 -10 -6 0 -13 5 -16 10 -3 6 1 10 9 10 9 0 16 -4 16 -10z
m-2808 -54 c19 -28 -8 -60 -72 -86 l-31 -13 7 -91 c12 -166 30 -262 63 -332
17 -36 31 -70 31 -75 0 -4 -17 -11 -37 -14 -72 -12 -468 -127 -522 -151 -30
-13 -55 -23 -56 -22 -13 15 -67 136 -110 248 -29 75 -68 165 -85 200 -17 34
-30 63 -28 65 2 1 37 12 78 24 86 26 345 122 565 210 145 58 179 65 197 37z
m2465 -55 c143 -76 303 -147 408 -181 138 -45 316 -121 571 -244 237 -114 368
-167 481 -196 34 -8 44 -16 49 -37 4 -15 2 -146 -5 -292 -6 -146 -14 -333 -17
-416 -7 -179 -27 -395 -54 -560 -10 -66 -28 -191 -40 -279 -39 -300 -113 -571
-199 -731 -146 -272 -440 -552 -807 -768 -268 -158 -393 -239 -452 -292 l-62
-57 -48 35 c-72 52 -319 184 -434 232 -293 120 -674 419 -822 643 -60 91 -96
175 -141 333 -45 156 -58 244 -85 559 -12 140 -32 355 -46 477 -13 123 -29
305 -35 405 -5 101 -19 270 -29 375 -11 106 -20 199 -20 206 0 8 42 29 103 51
165 62 355 148 632 290 379 194 759 408 860 485 22 17 45 31 52 31 6 0 69 -31
140 -69z m3176 -112 c-12 -98 -17 -217 -18 -372 l0 -227 -30 -8 c-16 -5 -145
-37 -285 -71 -140 -34 -352 -93 -470 -131 -118 -38 -285 -89 -370 -114 -85
-25 -174 -52 -197 -60 l-43 -15 0 47 c-1 171 -21 402 -39 462 -12 36 -21 72
-21 81 0 9 -9 27 -19 41 l-20 25 272 88 c150 48 400 130 557 182 313 104 693
223 698 218 2 -1 -5 -67 -15 -146z m-5311 -764 c-5 -135 9 -297 37 -443 l18
-94 -26 -9 c-14 -6 -95 -24 -179 -41 l-154 -30 -37 34 c-20 19 -91 85 -158
146 -73 69 -153 155 -202 219 -83 109 -87 122 -34 123 43 0 253 60 488 139
132 45 242 81 245 81 3 0 4 -56 2 -125z m6248 -593 c0 -38 -129 -401 -184
-517 -71 -149 -90 -177 -173 -250 l-65 -58 84 114 c109 146 121 166 113 179
-3 5 -14 10 -24 10 -15 0 -305 -178 -511 -315 -171 -113 -492 -301 -650 -380
-117 -59 -307 -134 -595 -235 -121 -43 -265 -94 -320 -114 -96 -34 -165 -46
-165 -27 0 5 7 25 16 46 8 21 31 99 50 174 19 75 48 181 64 236 16 55 30 107
30 116 0 14 20 17 128 22 106 5 156 13 307 52 275 70 429 119 649 206 246 98
429 187 645 314 219 128 281 172 446 319 77 68 143 125 148 125 4 1 7 -7 7
-17z m223 -17 c-27 -36 -42 -31 -27 9 3 9 15 16 26 16 18 0 18 -1 1 -25z
m-6363 -271 c0 -65 -3 -83 -12 -78 -22 13 -147 119 -143 122 4 4 128 40 143
41 9 1 12 -22 12 -85z m134 -527 c10 -37 7 -167 -4 -167 -5 0 -10 7 -10 15 0
7 -6 18 -13 22 -6 4 -18 20 -26 36 -8 15 -26 41 -40 57 -48 54 -61 70 -55 70
3 0 -6 12 -20 28 -32 35 -97 112 -116 136 -8 11 51 -25 132 -78 93 -62 148
-106 152 -119z m5400 -185 c-54 -49 -123 -96 -130 -90 -4 5 154 126 166 127 3
0 -14 -17 -36 -37z"/>
<path d="M13711 15094 c-12 -15 -21 -36 -21 -46 0 -13 49 -66 127 -142 70 -66
186 -178 258 -248 75 -72 142 -129 158 -133 56 -14 104 54 76 107 -25 47 -87
113 -189 202 -58 50 -135 119 -172 153 -76 71 -168 133 -197 133 -11 0 -29
-12 -40 -26z"/>
<path d="M14486 14289 c-53 -41 -33 -88 116 -275 40 -51 100 -131 133 -180
102 -148 126 -165 179 -123 28 22 34 54 12 78 -7 9 -55 84 -106 166 -51 83
-109 170 -129 195 -65 82 -144 160 -161 160 -10 0 -29 -9 -44 -21z"/>
<path d="M5373 12488 c-12 -13 -33 -48 -48 -78 -28 -54 -145 -357 -145 -372 0
-5 -23 -68 -51 -141 -48 -124 -129 -407 -129 -453 0 -38 78 -94 131 -94 29 0
55 33 72 91 9 30 43 162 76 294 65 260 94 350 163 520 81 197 82 212 13 241
-46 19 -58 18 -82 -8z"/>
<path d="M4981 11134 c-12 -25 -25 -62 -31 -83 -16 -59 -41 -289 -43 -391 -2
-80 1 -101 19 -130 11 -19 32 -39 46 -44 36 -13 83 8 97 42 6 15 18 110 26
212 14 170 22 236 40 345 5 32 3 45 -15 68 -18 23 -29 27 -70 27 -49 0 -49 0
-69 -46z"/>
<path d="M10727 4916 c-19 -18 -44 -37 -55 -40 -12 -4 -32 -22 -44 -39 l-23
-32 31 20 c50 32 147 125 131 125 -4 0 -22 -15 -40 -34z"/>
<path d="M10553 4780 c-13 -5 -23 -14 -23 -20 0 -16 15 -12 35 10 20 22 20 23
-12 10z"/>
<path d="M9280 8262 c0 -5 -12 -13 -27 -17 -16 -3 -138 -64 -273 -135 -135
-71 -279 -144 -320 -163 -41 -19 -176 -82 -300 -140 -124 -58 -265 -123 -315
-144 l-90 -40 2 -264 c4 -534 29 -949 73 -1215 22 -133 75 -277 148 -400 87
-147 139 -219 228 -309 182 -186 519 -453 642 -508 87 -39 216 -70 269 -64 54
6 182 67 313 149 55 35 135 85 178 111 218 137 353 241 483 370 222 222 286
315 327 482 32 126 61 332 77 555 9 113 27 275 40 361 34 213 31 488 -7 682
-18 94 1 83 -353 211 -248 90 -470 191 -650 295 -210 121 -445 218 -445 183z
m109 -621 c27 -18 53 -41 56 -51 3 -11 -5 -43 -20 -74 -21 -44 -25 -67 -23
-113 l3 -58 70 -28 c129 -52 170 -71 260 -124 49 -30 99 -56 111 -59 25 -6 58
32 122 141 72 124 59 121 145 37 41 -39 80 -72 87 -72 7 0 -34 -50 -91 -111
-57 -61 -118 -127 -136 -148 l-32 -38 30 -104 c16 -57 32 -133 35 -168 6 -81
14 -91 62 -80 20 4 105 11 188 15 l151 7 6 -48 c4 -26 7 -78 7 -116 l0 -67
-62 -7 c-35 -3 -110 -2 -168 3 -60 5 -110 5 -116 0 -13 -10 -44 -92 -68 -178
-9 -31 -29 -83 -45 -115 l-30 -59 42 -39 c23 -22 78 -66 122 -98 44 -32 88
-64 97 -71 15 -12 8 -22 -72 -99 l-90 -86 -55 68 c-31 38 -64 73 -74 78 -10 6
-36 33 -57 61 -21 27 -43 50 -49 50 -6 0 -65 -34 -132 -74 -67 -41 -141 -85
-164 -96 l-42 -22 6 -127 c3 -69 3 -131 -1 -138 -9 -15 -143 -93 -159 -93 -8
0 -13 13 -13 33 0 50 -8 55 -75 47 -33 -4 -64 -4 -69 1 -11 10 -27 116 -20
133 2 6 28 22 57 36 l52 25 3 107 3 106 -58 7 c-81 9 -220 44 -267 66 -22 11
-45 19 -50 18 -14 -1 -116 -121 -179 -211 l-48 -69 -27 20 c-52 38 -146 141
-137 149 6 5 65 55 132 111 67 56 123 110 125 119 3 9 -6 49 -19 87 -13 39
-30 107 -38 152 -8 45 -22 99 -32 120 -21 44 -26 45 -183 19 -52 -8 -119 -15
-147 -16 l-53 0 0 88 c0 48 4 92 8 97 4 7 82 10 210 10 168 0 204 3 212 15 5
8 14 46 20 85 6 38 19 118 30 176 26 144 21 162 -73 234 -40 30 -105 80 -145
110 -40 31 -70 60 -66 66 3 6 27 41 54 80 l48 69 43 -72 c24 -40 64 -94 89
-119 76 -77 215 -125 215 -75 0 14 37 40 138 97 76 43 144 76 151 73 7 -3 19
2 26 11 21 25 5 84 -34 124 -38 39 -66 96 -66 135 0 23 2 25 26 16 14 -6 39
-10 55 -10 28 0 33 6 56 59 l26 60 28 -28 c15 -15 50 -42 78 -60z"/>
<path d="M9175 7146 c-109 -35 -215 -111 -215 -155 0 -37 27 -35 93 7 34 22
95 54 135 72 58 27 72 37 72 55 0 13 -7 26 -16 29 -20 8 -20 7 -69 -8z"/>
<path d="M9397 7146 c-27 -27 -10 -42 83 -76 48 -17 111 -47 138 -66 57 -38
74 -41 93 -18 11 13 10 22 -6 52 -34 62 -122 106 -241 119 -39 4 -54 2 -67
-11z"/>
<path d="M9230 6905 c-25 -8 -58 -12 -75 -9 -26 4 -40 -3 -98 -53 -117 -100
-168 -197 -183 -348 -6 -56 -3 -75 21 -142 23 -64 39 -89 86 -136 101 -100
202 -132 404 -125 114 4 125 6 197 40 91 43 145 90 181 156 63 116 75 300 25
397 -39 75 -80 109 -205 172 -111 55 -115 56 -211 59 -67 3 -111 -1 -142 -11z"/>
<path d="M8852 6818 c-48 -60 -81 -365 -51 -483 13 -51 34 -74 51 -57 8 8 7
32 -2 89 -22 137 -15 260 27 441 6 24 -8 30 -25 10z"/>
</g>
</svg>
